%TF.GenerationSoftware,KiCad,Pcbnew,9.0.5*%
%TF.CreationDate,2025-11-04T14:22:13-07:00*%
%TF.ProjectId,Tx,54782e6b-6963-4616-945f-706362585858,rev?*%
%TF.SameCoordinates,Original*%
%TF.FileFunction,Legend,Bot*%
%TF.FilePolarity,Positive*%
%FSLAX46Y46*%
G04 Gerber Fmt 4.6, Leading zero omitted, Abs format (unit mm)*
G04 Created by KiCad (PCBNEW 9.0.5) date 2025-11-04 14:22:13*
%MOMM*%
%LPD*%
G01*
G04 APERTURE LIST*
%ADD10C,0.100000*%
%ADD11C,0.000000*%
G04 APERTURE END LIST*
D10*
X189338094Y-85957419D02*
X189338094Y-84957419D01*
X189338094Y-84957419D02*
X189099999Y-84957419D01*
X189099999Y-84957419D02*
X188957142Y-85005038D01*
X188957142Y-85005038D02*
X188861904Y-85100276D01*
X188861904Y-85100276D02*
X188814285Y-85195514D01*
X188814285Y-85195514D02*
X188766666Y-85385990D01*
X188766666Y-85385990D02*
X188766666Y-85528847D01*
X188766666Y-85528847D02*
X188814285Y-85719323D01*
X188814285Y-85719323D02*
X188861904Y-85814561D01*
X188861904Y-85814561D02*
X188957142Y-85909800D01*
X188957142Y-85909800D02*
X189099999Y-85957419D01*
X189099999Y-85957419D02*
X189338094Y-85957419D01*
X187909523Y-85290752D02*
X187909523Y-85957419D01*
X188147618Y-84909800D02*
X188385713Y-85624085D01*
X188385713Y-85624085D02*
X187766666Y-85624085D01*
X189338094Y-110457419D02*
X189338094Y-109457419D01*
X189338094Y-109457419D02*
X189099999Y-109457419D01*
X189099999Y-109457419D02*
X188957142Y-109505038D01*
X188957142Y-109505038D02*
X188861904Y-109600276D01*
X188861904Y-109600276D02*
X188814285Y-109695514D01*
X188814285Y-109695514D02*
X188766666Y-109885990D01*
X188766666Y-109885990D02*
X188766666Y-110028847D01*
X188766666Y-110028847D02*
X188814285Y-110219323D01*
X188814285Y-110219323D02*
X188861904Y-110314561D01*
X188861904Y-110314561D02*
X188957142Y-110409800D01*
X188957142Y-110409800D02*
X189099999Y-110457419D01*
X189099999Y-110457419D02*
X189338094Y-110457419D01*
X188385713Y-109552657D02*
X188338094Y-109505038D01*
X188338094Y-109505038D02*
X188242856Y-109457419D01*
X188242856Y-109457419D02*
X188004761Y-109457419D01*
X188004761Y-109457419D02*
X187909523Y-109505038D01*
X187909523Y-109505038D02*
X187861904Y-109552657D01*
X187861904Y-109552657D02*
X187814285Y-109647895D01*
X187814285Y-109647895D02*
X187814285Y-109743133D01*
X187814285Y-109743133D02*
X187861904Y-109885990D01*
X187861904Y-109885990D02*
X188433332Y-110457419D01*
X188433332Y-110457419D02*
X187814285Y-110457419D01*
X189338094Y-95957419D02*
X189338094Y-94957419D01*
X189338094Y-94957419D02*
X189099999Y-94957419D01*
X189099999Y-94957419D02*
X188957142Y-95005038D01*
X188957142Y-95005038D02*
X188861904Y-95100276D01*
X188861904Y-95100276D02*
X188814285Y-95195514D01*
X188814285Y-95195514D02*
X188766666Y-95385990D01*
X188766666Y-95385990D02*
X188766666Y-95528847D01*
X188766666Y-95528847D02*
X188814285Y-95719323D01*
X188814285Y-95719323D02*
X188861904Y-95814561D01*
X188861904Y-95814561D02*
X188957142Y-95909800D01*
X188957142Y-95909800D02*
X189099999Y-95957419D01*
X189099999Y-95957419D02*
X189338094Y-95957419D01*
X188433332Y-94957419D02*
X187814285Y-94957419D01*
X187814285Y-94957419D02*
X188147618Y-95338371D01*
X188147618Y-95338371D02*
X188004761Y-95338371D01*
X188004761Y-95338371D02*
X187909523Y-95385990D01*
X187909523Y-95385990D02*
X187861904Y-95433609D01*
X187861904Y-95433609D02*
X187814285Y-95528847D01*
X187814285Y-95528847D02*
X187814285Y-95766942D01*
X187814285Y-95766942D02*
X187861904Y-95862180D01*
X187861904Y-95862180D02*
X187909523Y-95909800D01*
X187909523Y-95909800D02*
X188004761Y-95957419D01*
X188004761Y-95957419D02*
X188290475Y-95957419D01*
X188290475Y-95957419D02*
X188385713Y-95909800D01*
X188385713Y-95909800D02*
X188433332Y-95862180D01*
%TO.C,D4*%
X186900000Y-90200000D02*
X186900000Y-90000000D01*
X190500000Y-90400000D02*
X187000000Y-90400000D01*
X190500000Y-86700000D02*
X190500000Y-90400000D01*
X186900000Y-86700000D02*
X190500000Y-86700000D01*
X186900000Y-87000000D02*
X186900000Y-86700000D01*
X186960555Y-90460555D02*
G75*
G02*
X186239445Y-90460555I-360555J0D01*
G01*
X186239445Y-90460555D02*
G75*
G02*
X186960555Y-90460555I360555J0D01*
G01*
%TO.C,D2*%
X186800000Y-114400000D02*
X186800001Y-114660556D01*
X186800000Y-111200000D02*
X186800000Y-111500000D01*
X190400000Y-111200000D02*
X186800000Y-111200000D01*
X190400000Y-114800000D02*
X190400000Y-111200000D01*
X186900000Y-114800000D02*
X190400000Y-114800000D01*
X186960555Y-114960555D02*
G75*
G02*
X186239445Y-114960555I-360555J0D01*
G01*
X186239445Y-114960555D02*
G75*
G02*
X186960555Y-114960555I360555J0D01*
G01*
%TO.C,D3*%
X186700000Y-96700000D02*
X186700000Y-97000000D01*
X190400000Y-96700000D02*
X186700000Y-96700000D01*
X190400000Y-100300000D02*
X190400000Y-96700000D01*
X186980277Y-100300000D02*
X190400000Y-100300000D01*
X186900000Y-100000000D02*
X186900000Y-100200000D01*
X186900000Y-100200000D02*
X186900000Y-100000000D01*
X186960555Y-100460555D02*
G75*
G02*
X186239445Y-100460555I-360555J0D01*
G01*
X186239445Y-100460555D02*
G75*
G02*
X186960555Y-100460555I360555J0D01*
G01*
D11*
%TO.C,G\u002A\u002A\u002A*%
G36*
X209503434Y-94384517D02*
G01*
X209538763Y-94412276D01*
X209583227Y-94452105D01*
X209593486Y-94461604D01*
X209646525Y-94507994D01*
X209715654Y-94565585D01*
X209793068Y-94627960D01*
X209870961Y-94688701D01*
X209918149Y-94724267D01*
X210145884Y-94882941D01*
X210390570Y-95034249D01*
X210646818Y-95175664D01*
X210909239Y-95304662D01*
X211172447Y-95418716D01*
X211431052Y-95515299D01*
X211679665Y-95591887D01*
X211912899Y-95645952D01*
X211949801Y-95652264D01*
X212103063Y-95668502D01*
X212268470Y-95672863D01*
X212432016Y-95665346D01*
X212579696Y-95645952D01*
X212758644Y-95606059D01*
X213003391Y-95534229D01*
X213259128Y-95441930D01*
X213520526Y-95331893D01*
X213782256Y-95206849D01*
X214038989Y-95069528D01*
X214285396Y-94922663D01*
X214516147Y-94768984D01*
X214725914Y-94611221D01*
X214909368Y-94452105D01*
X214921214Y-94441082D01*
X214963940Y-94403874D01*
X214995953Y-94379948D01*
X215011059Y-94374057D01*
X215012403Y-94375979D01*
X215012154Y-94403435D01*
X214998125Y-94453497D01*
X214972538Y-94521246D01*
X214937621Y-94601761D01*
X214895598Y-94690124D01*
X214848693Y-94781416D01*
X214799133Y-94870717D01*
X214749142Y-94953109D01*
X214621214Y-95138045D01*
X214421181Y-95379004D01*
X214197587Y-95597753D01*
X213950525Y-95794235D01*
X213680086Y-95968392D01*
X213386363Y-96120167D01*
X213069448Y-96249501D01*
X212729433Y-96356337D01*
X212366411Y-96440619D01*
X212312805Y-96448205D01*
X212249410Y-96449742D01*
X212174824Y-96443655D01*
X212082535Y-96429385D01*
X211966033Y-96406376D01*
X211812900Y-96371145D01*
X211484870Y-96274535D01*
X211174069Y-96153195D01*
X210881791Y-96007968D01*
X210609327Y-95839700D01*
X210357969Y-95649235D01*
X210129009Y-95437418D01*
X209923739Y-95205094D01*
X209743453Y-94953109D01*
X209735735Y-94940941D01*
X209685665Y-94857151D01*
X209636372Y-94767217D01*
X209590081Y-94676058D01*
X209549017Y-94588592D01*
X209515406Y-94509740D01*
X209491472Y-94444421D01*
X209479440Y-94397554D01*
X209481536Y-94374057D01*
X209483436Y-94373583D01*
X209503434Y-94384517D01*
G37*
G36*
X219553267Y-95870197D02*
G01*
X219769196Y-96285319D01*
X219955058Y-96709473D01*
X220111249Y-97143574D01*
X220238161Y-97588536D01*
X220336190Y-98045273D01*
X220405730Y-98514702D01*
X220410733Y-98563407D01*
X220417699Y-98650842D01*
X220424117Y-98753328D01*
X220429878Y-98866509D01*
X220434872Y-98986032D01*
X220438991Y-99107541D01*
X220442124Y-99226682D01*
X220444164Y-99339099D01*
X220445000Y-99440437D01*
X220444525Y-99526343D01*
X220442627Y-99592461D01*
X220439199Y-99634436D01*
X220434132Y-99647913D01*
X220419826Y-99634814D01*
X220390016Y-99600392D01*
X220349677Y-99550239D01*
X220303337Y-99489826D01*
X220260253Y-99433704D01*
X220141995Y-99290714D01*
X220017505Y-99154338D01*
X219891291Y-99028918D01*
X219767861Y-98918793D01*
X219651722Y-98828306D01*
X219547382Y-98761797D01*
X219453107Y-98710182D01*
X219452859Y-98764611D01*
X219452105Y-98800133D01*
X219448491Y-98879632D01*
X219442434Y-98979338D01*
X219434525Y-99091509D01*
X219425352Y-99208402D01*
X219415504Y-99322272D01*
X219405570Y-99425377D01*
X219396140Y-99509974D01*
X219378739Y-99642395D01*
X219301121Y-100103815D01*
X219199202Y-100550932D01*
X219073615Y-100982104D01*
X218924995Y-101395687D01*
X218753972Y-101790037D01*
X218561182Y-102163511D01*
X218347257Y-102514465D01*
X218112830Y-102841256D01*
X218082639Y-102878800D01*
X218022451Y-102949971D01*
X217950451Y-103032041D01*
X217873178Y-103117595D01*
X217797171Y-103199220D01*
X217731672Y-103267584D01*
X217673951Y-103326483D01*
X217627653Y-103372306D01*
X217596364Y-103401503D01*
X217583674Y-103410522D01*
X217583553Y-103410343D01*
X217587093Y-103391964D01*
X217600541Y-103349536D01*
X217621835Y-103289172D01*
X217648913Y-103216990D01*
X217664123Y-103176932D01*
X217774646Y-102843149D01*
X217857839Y-102506761D01*
X217913578Y-102170366D01*
X217941737Y-101836564D01*
X217942191Y-101507955D01*
X217914814Y-101187137D01*
X217859482Y-100876710D01*
X217776069Y-100579274D01*
X217681019Y-100331448D01*
X217555027Y-100076610D01*
X217403747Y-99834959D01*
X217224967Y-99602997D01*
X217016476Y-99377223D01*
X216944259Y-99306558D01*
X216767503Y-99146963D01*
X216585739Y-99003050D01*
X216390067Y-98868054D01*
X216171583Y-98735210D01*
X216005002Y-98639334D01*
X216059477Y-98624433D01*
X216072162Y-98622063D01*
X216119526Y-98618292D01*
X216188414Y-98616441D01*
X216271682Y-98616637D01*
X216362187Y-98619010D01*
X216619656Y-98641403D01*
X216912531Y-98696801D01*
X217203513Y-98783109D01*
X217490178Y-98899325D01*
X217770100Y-99044453D01*
X218040855Y-99217491D01*
X218300018Y-99417442D01*
X218347788Y-99456491D01*
X218396164Y-99493047D01*
X218430986Y-99515865D01*
X218446853Y-99521131D01*
X218448549Y-99519010D01*
X218459633Y-99486496D01*
X218469502Y-99425725D01*
X218478094Y-99340740D01*
X218485347Y-99235582D01*
X218491200Y-99114293D01*
X218495590Y-98980913D01*
X218498456Y-98839485D01*
X218499737Y-98694049D01*
X218499369Y-98548648D01*
X218497293Y-98407322D01*
X218493445Y-98274113D01*
X218487764Y-98153062D01*
X218480189Y-98048211D01*
X218470657Y-97963601D01*
X218442864Y-97787055D01*
X218407792Y-97606330D01*
X218368004Y-97443860D01*
X218321761Y-97291802D01*
X218304305Y-97239147D01*
X218282368Y-97171360D01*
X218265685Y-97117875D01*
X218256910Y-97087073D01*
X218248043Y-97049534D01*
X218342095Y-97084569D01*
X218351280Y-97088035D01*
X218447521Y-97128401D01*
X218555392Y-97179552D01*
X218666564Y-97237031D01*
X218772712Y-97296379D01*
X218865506Y-97353138D01*
X218936619Y-97402850D01*
X218964111Y-97423897D01*
X219009606Y-97457029D01*
X219040978Y-97477525D01*
X219052651Y-97481600D01*
X219050833Y-97473710D01*
X219040104Y-97439899D01*
X219021897Y-97386889D01*
X218998695Y-97322020D01*
X218931076Y-97144592D01*
X218850763Y-96953409D01*
X218769196Y-96778689D01*
X218688025Y-96623560D01*
X218608900Y-96491153D01*
X218533470Y-96384595D01*
X218463387Y-96307016D01*
X218448268Y-96294012D01*
X218373138Y-96252085D01*
X218280419Y-96232480D01*
X218169264Y-96235345D01*
X218038822Y-96260834D01*
X217888245Y-96309097D01*
X217716682Y-96380286D01*
X217523284Y-96474552D01*
X217398242Y-96541312D01*
X217257394Y-96621565D01*
X217125654Y-96701927D01*
X217005857Y-96780374D01*
X216900839Y-96854880D01*
X216813434Y-96923421D01*
X216746479Y-96983972D01*
X216702809Y-97034507D01*
X216685260Y-97073002D01*
X216689588Y-97103417D01*
X216721234Y-97156575D01*
X216782786Y-97221312D01*
X216874214Y-97297595D01*
X216995483Y-97385392D01*
X217054213Y-97425919D01*
X217099628Y-97458652D01*
X217124766Y-97480296D01*
X217133032Y-97494678D01*
X217127833Y-97505627D01*
X217112576Y-97516969D01*
X217107862Y-97519957D01*
X217061365Y-97542653D01*
X216991263Y-97570047D01*
X216904165Y-97599966D01*
X216806682Y-97630238D01*
X216705425Y-97658690D01*
X216607004Y-97683149D01*
X216569802Y-97691614D01*
X216448740Y-97717847D01*
X216340091Y-97738583D01*
X216237507Y-97754442D01*
X216134643Y-97766045D01*
X216025152Y-97774013D01*
X215902688Y-97778967D01*
X215760907Y-97781529D01*
X215593460Y-97782318D01*
X215512277Y-97782243D01*
X215361646Y-97781033D01*
X215233774Y-97777885D01*
X215122380Y-97772181D01*
X215021186Y-97763301D01*
X214923912Y-97750625D01*
X214824280Y-97733536D01*
X214716009Y-97711412D01*
X214592821Y-97683635D01*
X214531276Y-97670013D01*
X214470883Y-97658193D01*
X214428370Y-97651698D01*
X214410374Y-97651689D01*
X214407786Y-97667678D01*
X214412539Y-97709150D01*
X214424216Y-97767455D01*
X214441003Y-97834739D01*
X214461089Y-97903150D01*
X214482660Y-97964836D01*
X214512347Y-98031306D01*
X214552279Y-98108144D01*
X214593658Y-98178347D01*
X214604036Y-98194796D01*
X214633610Y-98244604D01*
X214652523Y-98281194D01*
X214657069Y-98297592D01*
X214650764Y-98299208D01*
X214619783Y-98291552D01*
X214569492Y-98270990D01*
X214505497Y-98240144D01*
X214433406Y-98201638D01*
X214358825Y-98158094D01*
X214348700Y-98151876D01*
X214117296Y-97992038D01*
X213899547Y-97807819D01*
X213699900Y-97603744D01*
X213522803Y-97384342D01*
X213372701Y-97154139D01*
X213359937Y-97131810D01*
X213324622Y-97067897D01*
X213295327Y-97011932D01*
X213290358Y-97001425D01*
X214552477Y-97001425D01*
X214555228Y-97006773D01*
X214581731Y-97023616D01*
X214632213Y-97044810D01*
X214701570Y-97068358D01*
X214784696Y-97092262D01*
X214829954Y-97102089D01*
X214917633Y-97114370D01*
X215016939Y-97122541D01*
X215117105Y-97126059D01*
X215207364Y-97124384D01*
X215276947Y-97116975D01*
X215397700Y-97087962D01*
X215543262Y-97033870D01*
X215682809Y-96958772D01*
X215818057Y-96861052D01*
X215950726Y-96739094D01*
X216082535Y-96591283D01*
X216215202Y-96416003D01*
X216350445Y-96211637D01*
X216489984Y-95976571D01*
X216493929Y-95969594D01*
X216530834Y-95902343D01*
X216559679Y-95846252D01*
X216577657Y-95807004D01*
X216581963Y-95790284D01*
X216570811Y-95791760D01*
X216534036Y-95807542D01*
X216474552Y-95837553D01*
X216395019Y-95880204D01*
X216298097Y-95933909D01*
X216186444Y-95997081D01*
X216062720Y-96068132D01*
X215929585Y-96145476D01*
X215789699Y-96227525D01*
X215645720Y-96312692D01*
X215500308Y-96399391D01*
X215356123Y-96486033D01*
X215215824Y-96571033D01*
X215082071Y-96652802D01*
X214957524Y-96729754D01*
X214844840Y-96800302D01*
X214746681Y-96862858D01*
X214665706Y-96915836D01*
X214604574Y-96957647D01*
X214565944Y-96986706D01*
X214552477Y-97001425D01*
X213290358Y-97001425D01*
X213277381Y-96973985D01*
X213256077Y-96922064D01*
X213451849Y-96811241D01*
X213550112Y-96755415D01*
X213836692Y-96590394D01*
X214124779Y-96421381D01*
X214411026Y-96250459D01*
X214692083Y-96079711D01*
X214964602Y-95911219D01*
X215225234Y-95747066D01*
X215470631Y-95589335D01*
X215697444Y-95440108D01*
X215902323Y-95301468D01*
X216081922Y-95175497D01*
X216252621Y-95050227D01*
X216425697Y-94915102D01*
X216573995Y-94788567D01*
X216699888Y-94667965D01*
X216805748Y-94550635D01*
X216893947Y-94433918D01*
X216966857Y-94315156D01*
X217026850Y-94191689D01*
X217076299Y-94060859D01*
X217125155Y-93881910D01*
X217151872Y-93688884D01*
X217150537Y-93493191D01*
X217121583Y-93287467D01*
X217121244Y-93285745D01*
X217118304Y-93248213D01*
X217126942Y-93234002D01*
X217130396Y-93234822D01*
X217157241Y-93249404D01*
X217203751Y-93279715D01*
X217265418Y-93322486D01*
X217337738Y-93374446D01*
X217416202Y-93432325D01*
X217496305Y-93492852D01*
X217573539Y-93552758D01*
X217643397Y-93608771D01*
X217753124Y-93700959D01*
X217933676Y-93861267D01*
X218118717Y-94035015D01*
X218301966Y-94215946D01*
X218477145Y-94397804D01*
X218637972Y-94574331D01*
X218778168Y-94739273D01*
X219029633Y-95063390D01*
X219306877Y-95463192D01*
X219504890Y-95790284D01*
X219553267Y-95870197D01*
G37*
G36*
X211188135Y-97029757D02*
G01*
X211156083Y-97089762D01*
X211119894Y-97154139D01*
X211114091Y-97164136D01*
X210962745Y-97393970D01*
X210784593Y-97612810D01*
X210584082Y-97816129D01*
X210365659Y-97999399D01*
X210133770Y-98158094D01*
X210102267Y-98176977D01*
X210026549Y-98219563D01*
X209956491Y-98255379D01*
X209897550Y-98281893D01*
X209855180Y-98296572D01*
X209834836Y-98296884D01*
X209834603Y-98296566D01*
X209839849Y-98278582D01*
X209859774Y-98242056D01*
X209890307Y-98194504D01*
X209926440Y-98135711D01*
X209967909Y-98057539D01*
X210001883Y-97982844D01*
X210023989Y-97922841D01*
X210046332Y-97851587D01*
X210065143Y-97781357D01*
X210078606Y-97719639D01*
X210084904Y-97673920D01*
X210082221Y-97651689D01*
X210068234Y-97651292D01*
X210028645Y-97656979D01*
X209970280Y-97668147D01*
X209899774Y-97683635D01*
X209822510Y-97701293D01*
X209710428Y-97725328D01*
X209609416Y-97744173D01*
X209513318Y-97758428D01*
X209415981Y-97768690D01*
X209311248Y-97775560D01*
X209192965Y-97779637D01*
X209054976Y-97781518D01*
X208891127Y-97781805D01*
X208771441Y-97781420D01*
X208648350Y-97780349D01*
X208547692Y-97778357D01*
X208464166Y-97775160D01*
X208392469Y-97770475D01*
X208327298Y-97764020D01*
X208263351Y-97755510D01*
X208195327Y-97744663D01*
X208185160Y-97742935D01*
X208054695Y-97718488D01*
X207922842Y-97689968D01*
X207794316Y-97658719D01*
X207673830Y-97626083D01*
X207566097Y-97593403D01*
X207475831Y-97562023D01*
X207407746Y-97533284D01*
X207366554Y-97508531D01*
X207362863Y-97504066D01*
X207364822Y-97489950D01*
X207384599Y-97468471D01*
X207425465Y-97436533D01*
X207490688Y-97391041D01*
X207528599Y-97364530D01*
X207602669Y-97309180D01*
X207671699Y-97253571D01*
X207724578Y-97206470D01*
X207730362Y-97200826D01*
X207778313Y-97149673D01*
X207804486Y-97107381D01*
X207807885Y-97068561D01*
X207787515Y-97027822D01*
X207742380Y-96979774D01*
X207671485Y-96919029D01*
X207615515Y-96874545D01*
X207429324Y-96741861D01*
X207213377Y-96608185D01*
X206969311Y-96474552D01*
X206950315Y-96464775D01*
X206756907Y-96371865D01*
X206585229Y-96302414D01*
X206434719Y-96256318D01*
X206304812Y-96233474D01*
X206194945Y-96233780D01*
X206104554Y-96257132D01*
X206033075Y-96303427D01*
X205974178Y-96366791D01*
X205898158Y-96470181D01*
X205818335Y-96600040D01*
X205736353Y-96753261D01*
X205653856Y-96926736D01*
X205572490Y-97117358D01*
X205493900Y-97322020D01*
X205480114Y-97360283D01*
X205459476Y-97419241D01*
X205445259Y-97462127D01*
X205439944Y-97481600D01*
X205443236Y-97481754D01*
X205465886Y-97468637D01*
X205505326Y-97441073D01*
X205555976Y-97402850D01*
X205562243Y-97398043D01*
X205636052Y-97347372D01*
X205730658Y-97290127D01*
X205837733Y-97230766D01*
X205948950Y-97173747D01*
X206055982Y-97123529D01*
X206150500Y-97084569D01*
X206244552Y-97049534D01*
X206235685Y-97087073D01*
X206230323Y-97106453D01*
X206215616Y-97154346D01*
X206194902Y-97218922D01*
X206170834Y-97291802D01*
X206130529Y-97422508D01*
X206089956Y-97583080D01*
X206054339Y-97760830D01*
X206021938Y-97963601D01*
X206020439Y-97974409D01*
X206011194Y-98062190D01*
X206003896Y-98169629D01*
X205998483Y-98292684D01*
X205994895Y-98427315D01*
X205993069Y-98569478D01*
X205992943Y-98715134D01*
X205994456Y-98860241D01*
X205997546Y-99000757D01*
X206002151Y-99132641D01*
X206008210Y-99251852D01*
X206015660Y-99354348D01*
X206024440Y-99436087D01*
X206034488Y-99493029D01*
X206045742Y-99521131D01*
X206057899Y-99517862D01*
X206090230Y-99497425D01*
X206136924Y-99462681D01*
X206192577Y-99417442D01*
X206351838Y-99291202D01*
X206614689Y-99112413D01*
X206897572Y-98952736D01*
X207062330Y-98873360D01*
X207326388Y-98767972D01*
X207588847Y-98691418D01*
X207855067Y-98642248D01*
X208130408Y-98619010D01*
X208172898Y-98617629D01*
X208260929Y-98616283D01*
X208338405Y-98617054D01*
X208398183Y-98619813D01*
X208433118Y-98624433D01*
X208487593Y-98639334D01*
X208321012Y-98735210D01*
X208255122Y-98773762D01*
X208014784Y-98927071D01*
X207796360Y-99088986D01*
X207591799Y-99265832D01*
X207393047Y-99463930D01*
X207326950Y-99536116D01*
X207129047Y-99781043D01*
X206960565Y-100038279D01*
X206821223Y-100308520D01*
X206710736Y-100592460D01*
X206628821Y-100890796D01*
X206575195Y-101204222D01*
X206549574Y-101533434D01*
X206547848Y-101697151D01*
X206563840Y-102004850D01*
X206603272Y-102319760D01*
X206664723Y-102633821D01*
X206746773Y-102938975D01*
X206848003Y-103227162D01*
X206869036Y-103280928D01*
X206891827Y-103341879D01*
X206907306Y-103386634D01*
X206912936Y-103408120D01*
X206908450Y-103408575D01*
X206886035Y-103391290D01*
X206847761Y-103355389D01*
X206796957Y-103304442D01*
X206736956Y-103242020D01*
X206671088Y-103171694D01*
X206602684Y-103097035D01*
X206535077Y-103021614D01*
X206471596Y-102949002D01*
X206415575Y-102882769D01*
X206370342Y-102826488D01*
X206268877Y-102690678D01*
X206040330Y-102347509D01*
X205833829Y-101981859D01*
X205649863Y-101595164D01*
X205488917Y-101188865D01*
X205351479Y-100764399D01*
X205238034Y-100323204D01*
X205149070Y-99866720D01*
X205085074Y-99396385D01*
X205046532Y-98913637D01*
X205035949Y-98712119D01*
X204943444Y-98762765D01*
X204900789Y-98787883D01*
X204792167Y-98864360D01*
X204673545Y-98962840D01*
X204549433Y-99078974D01*
X204424342Y-99208415D01*
X204302780Y-99346815D01*
X204189258Y-99489826D01*
X204146034Y-99546262D01*
X204105125Y-99597315D01*
X204074426Y-99633022D01*
X204058463Y-99647913D01*
X204054961Y-99642342D01*
X204051042Y-99609443D01*
X204048658Y-99550972D01*
X204047703Y-99471309D01*
X204048071Y-99374829D01*
X204049654Y-99265911D01*
X204052348Y-99148932D01*
X204056044Y-99028270D01*
X204060636Y-98908303D01*
X204066019Y-98793407D01*
X204072085Y-98687961D01*
X204078727Y-98596342D01*
X204085840Y-98522927D01*
X204143877Y-98117643D01*
X204237383Y-97659260D01*
X204359351Y-97213308D01*
X204510238Y-96778727D01*
X204690500Y-96354456D01*
X204900594Y-95939435D01*
X204988722Y-95790284D01*
X207910632Y-95790284D01*
X207913754Y-95804474D01*
X207930986Y-95842226D01*
X207959992Y-95898271D01*
X207997967Y-95967594D01*
X208042101Y-96045182D01*
X208089589Y-96126021D01*
X208137622Y-96205097D01*
X208183393Y-96277396D01*
X208281445Y-96422333D01*
X208411201Y-96593916D01*
X208538856Y-96737611D01*
X208667153Y-96855871D01*
X208798833Y-96951148D01*
X208936638Y-97025895D01*
X209083309Y-97082565D01*
X209137579Y-97096386D01*
X209221987Y-97110814D01*
X209316299Y-97121599D01*
X209410225Y-97127856D01*
X209493473Y-97128698D01*
X209555755Y-97123239D01*
X209563186Y-97121858D01*
X209656333Y-97102414D01*
X209744398Y-97080449D01*
X209822096Y-97057644D01*
X209884140Y-97035680D01*
X209925243Y-97016238D01*
X209940118Y-97001000D01*
X209932147Y-96991099D01*
X209899155Y-96965296D01*
X209843039Y-96926369D01*
X209766456Y-96875905D01*
X209672068Y-96815489D01*
X209562535Y-96746710D01*
X209440515Y-96671153D01*
X209308668Y-96590406D01*
X209169655Y-96506055D01*
X209026134Y-96419686D01*
X208880767Y-96332887D01*
X208736212Y-96247243D01*
X208595129Y-96164343D01*
X208460178Y-96085772D01*
X208334018Y-96013117D01*
X208219310Y-95947965D01*
X208118713Y-95891903D01*
X208034887Y-95846517D01*
X207970492Y-95813394D01*
X207928187Y-95794121D01*
X207910632Y-95790284D01*
X204988722Y-95790284D01*
X205140976Y-95532605D01*
X205412101Y-95132904D01*
X205714427Y-94739273D01*
X205765063Y-94678647D01*
X205857447Y-94573112D01*
X205964390Y-94455506D01*
X206080274Y-94331724D01*
X206199483Y-94207663D01*
X206316400Y-94089218D01*
X206425407Y-93982285D01*
X206520888Y-93892760D01*
X206597957Y-93823974D01*
X206696431Y-93738892D01*
X206798545Y-93653265D01*
X206901168Y-93569503D01*
X207001170Y-93490019D01*
X207095422Y-93417222D01*
X207180793Y-93353525D01*
X207254154Y-93301339D01*
X207312374Y-93263075D01*
X207352323Y-93241144D01*
X207370871Y-93237958D01*
X207373032Y-93252356D01*
X207369574Y-93291113D01*
X207360308Y-93343740D01*
X207355332Y-93371081D01*
X207345318Y-93467575D01*
X207341752Y-93580335D01*
X207344469Y-93697524D01*
X207353303Y-93807307D01*
X207368088Y-93897848D01*
X207386156Y-93970409D01*
X207424991Y-94095663D01*
X207473265Y-94214873D01*
X207532734Y-94329906D01*
X207605155Y-94442629D01*
X207692283Y-94554908D01*
X207795875Y-94668609D01*
X207917687Y-94785600D01*
X208059476Y-94907747D01*
X208222996Y-95036917D01*
X208410006Y-95174977D01*
X208622260Y-95323792D01*
X208861514Y-95485230D01*
X209003769Y-95578545D01*
X209185142Y-95694973D01*
X209385581Y-95821446D01*
X209600265Y-95955034D01*
X209824373Y-96092808D01*
X210053084Y-96231840D01*
X210281577Y-96369200D01*
X210505030Y-96501960D01*
X210718624Y-96627190D01*
X210917536Y-96741962D01*
X211096945Y-96843346D01*
X211236812Y-96921343D01*
X211215361Y-96973625D01*
X211210709Y-96984224D01*
X211202392Y-97001000D01*
X211188135Y-97029757D01*
G37*
G36*
X216106581Y-103737727D02*
G01*
X216048687Y-104058614D01*
X216040843Y-104099029D01*
X215988020Y-104357546D01*
X215935258Y-104589916D01*
X215880871Y-104801978D01*
X215823168Y-104999566D01*
X215760463Y-105188518D01*
X215691066Y-105374671D01*
X215613290Y-105563860D01*
X215585994Y-105627956D01*
X215412708Y-106055531D01*
X215263461Y-106463040D01*
X215137970Y-106851608D01*
X215035950Y-107222358D01*
X214957116Y-107576415D01*
X214901182Y-107914904D01*
X214867864Y-108238950D01*
X214859910Y-108463913D01*
X214856878Y-108549676D01*
X214860883Y-108738145D01*
X214876172Y-108936902D01*
X214903756Y-109118820D01*
X214944541Y-109291565D01*
X214950367Y-109312821D01*
X214968291Y-109388988D01*
X214974685Y-109443075D01*
X214970450Y-109481710D01*
X214938222Y-109567574D01*
X214884357Y-109656810D01*
X214809418Y-109742034D01*
X214711617Y-109824560D01*
X214589164Y-109905704D01*
X214440270Y-109986782D01*
X214263148Y-110069108D01*
X214056007Y-110153997D01*
X214010698Y-110171671D01*
X213643194Y-110319535D01*
X213286774Y-110471547D01*
X212929289Y-110633023D01*
X212558593Y-110809280D01*
X212544560Y-110816093D01*
X212456417Y-110858425D01*
X212378265Y-110895196D01*
X212314824Y-110924238D01*
X212270817Y-110943384D01*
X212250968Y-110950466D01*
X212249259Y-110950269D01*
X212224420Y-110941384D01*
X212176255Y-110920841D01*
X212109452Y-110890743D01*
X212028696Y-110853194D01*
X211938672Y-110810297D01*
X211792680Y-110740559D01*
X211489119Y-110599422D01*
X211188660Y-110464771D01*
X210897373Y-110339250D01*
X210621331Y-110225499D01*
X210366608Y-110126162D01*
X210363569Y-110125015D01*
X210165489Y-110043106D01*
X209991001Y-109956371D01*
X209841789Y-109865946D01*
X209719540Y-109772969D01*
X209625939Y-109678577D01*
X209562671Y-109583906D01*
X209540985Y-109537923D01*
X209523472Y-109485090D01*
X209519167Y-109433513D01*
X209527539Y-109372551D01*
X209548054Y-109291565D01*
X209552535Y-109275293D01*
X209590239Y-109111828D01*
X209616069Y-108940128D01*
X209630933Y-108752426D01*
X209635737Y-108540959D01*
X209634479Y-108454477D01*
X210261358Y-108454477D01*
X210268136Y-108492562D01*
X210284603Y-108548360D01*
X210308359Y-108614775D01*
X210337000Y-108684712D01*
X210368127Y-108751074D01*
X210391736Y-108793628D01*
X210436993Y-108859267D01*
X210497594Y-108930584D01*
X210578910Y-109014287D01*
X210711359Y-109135844D01*
X210867294Y-109254663D01*
X211030266Y-109351467D01*
X211206128Y-109429210D01*
X211400733Y-109490843D01*
X211619936Y-109539319D01*
X211695326Y-109550327D01*
X211803956Y-109560986D01*
X211931016Y-109569649D01*
X212069333Y-109576119D01*
X212211734Y-109580196D01*
X212351046Y-109581682D01*
X212480094Y-109580379D01*
X212591705Y-109576088D01*
X212678706Y-109568611D01*
X212915159Y-109531033D01*
X213128928Y-109479930D01*
X213321835Y-109414085D01*
X213498456Y-109331932D01*
X213663367Y-109231909D01*
X213677931Y-109221766D01*
X213763338Y-109155142D01*
X213852412Y-109075382D01*
X213939108Y-108988790D01*
X214017380Y-108901672D01*
X214081182Y-108820332D01*
X214124468Y-108751074D01*
X214146143Y-108705902D01*
X214175807Y-108636311D01*
X214201327Y-108568052D01*
X214220299Y-108508221D01*
X214230323Y-108463913D01*
X214228997Y-108442224D01*
X214228818Y-108442066D01*
X214210982Y-108445853D01*
X214174141Y-108463507D01*
X214126039Y-108491335D01*
X214103367Y-108505233D01*
X214045744Y-108537319D01*
X214008594Y-108548830D01*
X213987510Y-108538460D01*
X213978087Y-108504905D01*
X213975918Y-108446859D01*
X213972605Y-108333978D01*
X213961774Y-108186399D01*
X213944632Y-108025604D01*
X213922436Y-107860816D01*
X213896441Y-107701258D01*
X213867903Y-107556155D01*
X213838079Y-107434730D01*
X213819192Y-107370001D01*
X213753683Y-107177123D01*
X213681754Y-107012421D01*
X213601781Y-106872501D01*
X213512137Y-106753967D01*
X213439425Y-106670578D01*
X213438038Y-107038463D01*
X213436917Y-107154148D01*
X213431657Y-107330206D01*
X213421318Y-107494245D01*
X213404924Y-107657165D01*
X213381502Y-107829867D01*
X213350080Y-108023251D01*
X213337927Y-108090944D01*
X213313711Y-108214052D01*
X213287110Y-108337294D01*
X213259680Y-108454158D01*
X213232978Y-108558131D01*
X213208561Y-108642699D01*
X213187986Y-108701349D01*
X213176155Y-108728474D01*
X213158143Y-108759095D01*
X213133577Y-108781497D01*
X213094581Y-108802090D01*
X213033279Y-108827286D01*
X212888697Y-108880297D01*
X212666313Y-108944026D01*
X212453704Y-108981553D01*
X212246297Y-108993847D01*
X212118254Y-108989158D01*
X211908165Y-108961356D01*
X211690044Y-108907721D01*
X211459316Y-108827286D01*
X211416798Y-108810169D01*
X211370791Y-108788677D01*
X211342008Y-108767651D01*
X211322573Y-108740678D01*
X211304609Y-108701349D01*
X211293429Y-108671433D01*
X211270470Y-108597195D01*
X211244559Y-108500755D01*
X211217251Y-108388628D01*
X211190103Y-108267326D01*
X211164672Y-108143363D01*
X211142515Y-108023251D01*
X211122686Y-107904369D01*
X211096171Y-107724677D01*
X211077074Y-107559142D01*
X211064422Y-107396862D01*
X211057241Y-107226935D01*
X211054557Y-107038463D01*
X211053170Y-106670578D01*
X210980458Y-106753967D01*
X210952089Y-106787938D01*
X210865557Y-106912613D01*
X210788201Y-107059707D01*
X210718396Y-107232614D01*
X210654516Y-107434730D01*
X210627900Y-107541615D01*
X210599161Y-107684587D01*
X210572828Y-107843018D01*
X210550157Y-108007684D01*
X210532404Y-108169362D01*
X210520825Y-108318828D01*
X210516677Y-108446859D01*
X210516515Y-108467521D01*
X210512572Y-108517848D01*
X210500011Y-108544087D01*
X210474424Y-108547544D01*
X210431408Y-108529525D01*
X210366556Y-108491335D01*
X210364826Y-108490266D01*
X210316978Y-108462722D01*
X210280655Y-108445477D01*
X210263598Y-108442224D01*
X210261358Y-108454477D01*
X209634479Y-108454477D01*
X209633594Y-108393592D01*
X209621939Y-108178320D01*
X209599346Y-107960566D01*
X209564904Y-107733629D01*
X209517700Y-107490804D01*
X209456823Y-107225388D01*
X209419732Y-107080133D01*
X209318677Y-106733046D01*
X209194905Y-106364856D01*
X209048239Y-105975052D01*
X208878501Y-105563126D01*
X208825801Y-105436010D01*
X208742728Y-105215606D01*
X208666671Y-104985677D01*
X208596614Y-104742328D01*
X208531544Y-104481666D01*
X208470447Y-104199797D01*
X208412310Y-103892828D01*
X208368603Y-103631508D01*
X209456340Y-103631508D01*
X209457858Y-103738926D01*
X209461358Y-103849411D01*
X209466697Y-103955978D01*
X209473729Y-104051647D01*
X209482309Y-104129435D01*
X209492510Y-104197887D01*
X209561573Y-104534173D01*
X209660408Y-104858327D01*
X209788971Y-105170243D01*
X209947221Y-105469818D01*
X210135116Y-105756946D01*
X210148781Y-105775595D01*
X210185548Y-105822889D01*
X210214359Y-105855834D01*
X210229907Y-105868199D01*
X210234213Y-105855240D01*
X210238344Y-105813948D01*
X210241605Y-105749057D01*
X210243758Y-105665441D01*
X210244565Y-105567973D01*
X210244929Y-105488932D01*
X210246781Y-105345680D01*
X210250013Y-105187542D01*
X210254414Y-105020493D01*
X210259776Y-104850505D01*
X210265890Y-104683552D01*
X210272546Y-104525606D01*
X210279535Y-104382640D01*
X210286648Y-104260628D01*
X210293676Y-104165544D01*
X210301379Y-104092034D01*
X210312453Y-104014297D01*
X210324523Y-103951798D01*
X210336106Y-103913338D01*
X210348363Y-103891942D01*
X210398337Y-103836029D01*
X210474763Y-103774688D01*
X210574321Y-103709458D01*
X210693690Y-103641879D01*
X210829548Y-103573490D01*
X210978575Y-103505831D01*
X211137451Y-103440442D01*
X211302854Y-103378861D01*
X211471463Y-103322628D01*
X211639958Y-103273284D01*
X211805017Y-103232367D01*
X211815950Y-103229995D01*
X211946382Y-103209401D01*
X212096171Y-103197169D01*
X212255251Y-103193301D01*
X212413556Y-103197804D01*
X212561020Y-103210682D01*
X212687578Y-103231940D01*
X212749300Y-103246449D01*
X212917703Y-103291452D01*
X213087900Y-103344166D01*
X213256594Y-103403063D01*
X213420488Y-103466614D01*
X213576287Y-103533290D01*
X213720695Y-103601561D01*
X213850414Y-103669899D01*
X213962150Y-103736775D01*
X214052605Y-103800659D01*
X214118483Y-103860023D01*
X214156489Y-103913338D01*
X214166504Y-103945228D01*
X214178596Y-104005153D01*
X214189873Y-104081519D01*
X214198861Y-104165544D01*
X214201839Y-104202422D01*
X214209204Y-104313134D01*
X214216515Y-104448134D01*
X214223557Y-104601309D01*
X214230115Y-104766547D01*
X214235972Y-104937736D01*
X214240913Y-105108762D01*
X214244721Y-105273515D01*
X214247182Y-105425880D01*
X214248080Y-105559747D01*
X214248805Y-105655957D01*
X214250855Y-105741648D01*
X214254003Y-105808770D01*
X214258023Y-105852546D01*
X214262688Y-105868199D01*
X214266255Y-105866625D01*
X214287012Y-105846403D01*
X214319189Y-105807767D01*
X214357479Y-105756946D01*
X214398618Y-105698816D01*
X214580432Y-105409320D01*
X214732419Y-105107852D01*
X214854666Y-104794193D01*
X214947259Y-104468126D01*
X215010286Y-104129435D01*
X215012635Y-104111502D01*
X215020831Y-104028442D01*
X215027440Y-103929300D01*
X215032320Y-103821056D01*
X215035324Y-103710694D01*
X215036307Y-103605195D01*
X215035126Y-103511542D01*
X215031634Y-103436718D01*
X215025687Y-103387705D01*
X215014470Y-103335247D01*
X214955636Y-103382869D01*
X214924888Y-103406552D01*
X214848855Y-103455527D01*
X214779026Y-103487711D01*
X214723031Y-103499287D01*
X214712763Y-103497742D01*
X214672366Y-103485749D01*
X214609857Y-103463430D01*
X214530114Y-103432639D01*
X214438013Y-103395231D01*
X214338431Y-103353060D01*
X214161040Y-103276794D01*
X213875669Y-103155949D01*
X213616783Y-103048932D01*
X213382974Y-102955252D01*
X213172833Y-102874423D01*
X212984952Y-102805955D01*
X212817924Y-102749360D01*
X212670341Y-102704151D01*
X212540795Y-102669838D01*
X212427878Y-102645934D01*
X212330181Y-102631949D01*
X212246298Y-102627396D01*
X212199465Y-102628903D01*
X212107778Y-102638842D01*
X212001464Y-102658495D01*
X211879117Y-102688350D01*
X211739327Y-102728895D01*
X211580688Y-102780619D01*
X211401792Y-102844009D01*
X211201229Y-102919556D01*
X210977593Y-103007745D01*
X210729476Y-103109067D01*
X210455469Y-103224009D01*
X210154164Y-103353060D01*
X210104577Y-103374272D01*
X210008064Y-103414333D01*
X209921429Y-103448719D01*
X209849550Y-103475577D01*
X209797302Y-103493051D01*
X209769564Y-103499287D01*
X209749093Y-103497336D01*
X209686590Y-103476973D01*
X209613336Y-103437545D01*
X209536959Y-103382869D01*
X209478125Y-103335247D01*
X209466908Y-103387705D01*
X209465134Y-103397471D01*
X209459833Y-103453798D01*
X209456950Y-103534138D01*
X209456340Y-103631508D01*
X208368603Y-103631508D01*
X208356119Y-103556865D01*
X208352056Y-103530818D01*
X208336761Y-103428102D01*
X208320384Y-103311956D01*
X208303559Y-103187491D01*
X208286919Y-103059817D01*
X208271100Y-102934041D01*
X208256735Y-102815275D01*
X208244458Y-102708627D01*
X208234904Y-102619208D01*
X208228706Y-102552126D01*
X208226499Y-102512491D01*
X208225970Y-102507360D01*
X208211241Y-102472013D01*
X208175955Y-102414914D01*
X208119634Y-102335340D01*
X208041800Y-102232567D01*
X207980917Y-102153314D01*
X207861615Y-101993080D01*
X207762895Y-101852167D01*
X207683313Y-101727876D01*
X207621424Y-101617511D01*
X207575786Y-101518371D01*
X207544952Y-101427760D01*
X207527479Y-101342979D01*
X207521923Y-101261330D01*
X207524104Y-101231847D01*
X207535449Y-101163169D01*
X207555845Y-101067988D01*
X207584575Y-100949116D01*
X207620925Y-100809366D01*
X207664177Y-100651550D01*
X207713616Y-100478481D01*
X207768525Y-100292970D01*
X207789635Y-100219561D01*
X207805861Y-100156667D01*
X207815377Y-100111742D01*
X207816592Y-100091448D01*
X207814769Y-100087414D01*
X207822251Y-100077526D01*
X207831016Y-100068655D01*
X207846864Y-100035799D01*
X207864058Y-99987027D01*
X207898989Y-99887345D01*
X207962446Y-99748833D01*
X208037569Y-99623005D01*
X208120812Y-99514888D01*
X208208633Y-99429513D01*
X208297487Y-99371909D01*
X208344448Y-99352769D01*
X208465699Y-99327233D01*
X208600536Y-99328112D01*
X208746025Y-99354735D01*
X208899234Y-99406432D01*
X209057230Y-99482529D01*
X209217080Y-99582358D01*
X209223397Y-99586791D01*
X209292067Y-99637643D01*
X209370961Y-99700019D01*
X209456881Y-99770997D01*
X209546629Y-99847656D01*
X209637007Y-99927072D01*
X209724815Y-100006324D01*
X209806856Y-100082488D01*
X209879931Y-100152643D01*
X209940841Y-100213866D01*
X209986389Y-100263234D01*
X210013376Y-100297825D01*
X210018603Y-100314717D01*
X210016208Y-100315227D01*
X209991532Y-100308164D01*
X209945346Y-100289445D01*
X209883141Y-100261401D01*
X209810406Y-100226362D01*
X209771476Y-100207373D01*
X209537803Y-100106292D01*
X209308541Y-100028889D01*
X209088050Y-99976459D01*
X208880691Y-99950296D01*
X208867878Y-99949523D01*
X208773705Y-99946981D01*
X208708707Y-99952132D01*
X208671052Y-99965278D01*
X208658908Y-99986720D01*
X208663539Y-100004577D01*
X208689829Y-100049653D01*
X208737971Y-100113413D01*
X208806384Y-100194248D01*
X208893482Y-100290548D01*
X208997684Y-100400704D01*
X209117405Y-100523105D01*
X209251062Y-100656141D01*
X209397071Y-100798202D01*
X209553850Y-100947679D01*
X209719816Y-101102962D01*
X209893383Y-101262440D01*
X210072971Y-101424504D01*
X210139391Y-101484277D01*
X210214394Y-101552785D01*
X210277721Y-101611770D01*
X210326219Y-101658251D01*
X210356734Y-101689245D01*
X210366115Y-101701772D01*
X210362259Y-101703222D01*
X210331957Y-101701170D01*
X210275826Y-101690651D01*
X210197414Y-101672519D01*
X210100273Y-101647629D01*
X209987953Y-101616835D01*
X209864005Y-101580990D01*
X209836833Y-101572859D01*
X209602743Y-101496756D01*
X209350690Y-101404931D01*
X209088050Y-101300184D01*
X208822194Y-101185315D01*
X208818346Y-101183588D01*
X208731678Y-101145247D01*
X208655643Y-101112624D01*
X208594898Y-101087634D01*
X208554100Y-101072197D01*
X208537903Y-101068229D01*
X208537209Y-101070607D01*
X208539740Y-101096545D01*
X208548777Y-101143865D01*
X208562849Y-101204531D01*
X208568866Y-101227608D01*
X208613710Y-101357853D01*
X208677818Y-101486881D01*
X208763621Y-101618497D01*
X208873548Y-101756506D01*
X209010030Y-101904713D01*
X209101765Y-101994204D01*
X209205612Y-102086721D01*
X209313137Y-102174933D01*
X209419956Y-102255675D01*
X209521686Y-102325782D01*
X209613942Y-102382090D01*
X209692342Y-102421436D01*
X209752503Y-102440655D01*
X209759663Y-102441019D01*
X209800282Y-102436378D01*
X209868134Y-102423754D01*
X209960531Y-102403813D01*
X210074783Y-102377219D01*
X210208201Y-102344639D01*
X210358094Y-102306736D01*
X210521773Y-102264176D01*
X210696549Y-102217623D01*
X210879733Y-102167744D01*
X211068635Y-102115203D01*
X211099351Y-102106555D01*
X211266821Y-102058777D01*
X211407555Y-102017323D01*
X211525317Y-101980960D01*
X211623870Y-101948454D01*
X211706979Y-101918572D01*
X211778406Y-101890079D01*
X211841915Y-101861743D01*
X211958025Y-101806998D01*
X211958025Y-101708670D01*
X211953677Y-101612435D01*
X211922132Y-101424767D01*
X211860181Y-101228067D01*
X211767951Y-101022787D01*
X211669344Y-100850894D01*
X211536313Y-100668027D01*
X211377118Y-100494286D01*
X211366350Y-100483721D01*
X211258935Y-100385526D01*
X211164916Y-100314989D01*
X211081680Y-100271475D01*
X211006615Y-100254347D01*
X210937110Y-100262972D01*
X210870553Y-100296712D01*
X210804331Y-100354934D01*
X210769548Y-100392935D01*
X210731245Y-100438337D01*
X210706634Y-100471807D01*
X210681610Y-100512396D01*
X210638528Y-100442292D01*
X210630552Y-100428593D01*
X210601989Y-100372758D01*
X210569644Y-100302229D01*
X210539095Y-100228970D01*
X210519654Y-100175687D01*
X210495490Y-100102183D01*
X210469946Y-100018720D01*
X210444633Y-99931191D01*
X210421160Y-99845491D01*
X210401138Y-99767511D01*
X210386177Y-99703145D01*
X210377886Y-99658286D01*
X210377875Y-99638828D01*
X210387164Y-99640128D01*
X210422867Y-99650910D01*
X210481323Y-99670776D01*
X210558357Y-99698255D01*
X210649792Y-99731879D01*
X210751453Y-99770181D01*
X210800574Y-99788865D01*
X211079275Y-99893528D01*
X211328913Y-99984823D01*
X211549640Y-100062803D01*
X211741608Y-100127518D01*
X211904971Y-100179020D01*
X212039880Y-100217362D01*
X212146488Y-100242594D01*
X212203500Y-100251986D01*
X212270835Y-100253676D01*
X212346107Y-100242594D01*
X212361862Y-100239309D01*
X212473161Y-100211902D01*
X212612786Y-100171378D01*
X212780889Y-100117684D01*
X212977624Y-100050769D01*
X213203143Y-99970582D01*
X213457598Y-99877069D01*
X213741142Y-99770181D01*
X213815905Y-99741927D01*
X213910544Y-99706881D01*
X213991922Y-99677579D01*
X214055861Y-99655491D01*
X214098186Y-99642085D01*
X214114720Y-99638828D01*
X214114777Y-99651578D01*
X214107834Y-99690891D01*
X214094656Y-99750358D01*
X214076863Y-99823692D01*
X214056080Y-99904607D01*
X214033928Y-99986816D01*
X214012030Y-100064033D01*
X213992007Y-100129972D01*
X213975483Y-100178347D01*
X213970019Y-100192529D01*
X213941741Y-100261233D01*
X213910238Y-100331895D01*
X213878671Y-100398071D01*
X213850199Y-100453317D01*
X213827981Y-100491190D01*
X213815178Y-100505246D01*
X213811779Y-100504020D01*
X213792900Y-100484667D01*
X213768692Y-100449258D01*
X213729864Y-100393739D01*
X213662456Y-100325700D01*
X213588778Y-100278284D01*
X213514621Y-100254904D01*
X213445776Y-100258972D01*
X213385976Y-100282903D01*
X213292534Y-100339614D01*
X213192382Y-100419396D01*
X213089340Y-100518202D01*
X212987226Y-100631990D01*
X212889860Y-100756713D01*
X212801060Y-100888327D01*
X212724644Y-101022787D01*
X212671696Y-101133306D01*
X212595599Y-101334066D01*
X212549848Y-101526006D01*
X212534570Y-101708670D01*
X212534570Y-101806998D01*
X212650680Y-101861743D01*
X212661074Y-101866600D01*
X212725604Y-101894851D01*
X212798679Y-101923468D01*
X212884064Y-101953686D01*
X212985522Y-101986738D01*
X213106815Y-102023857D01*
X213251707Y-102066278D01*
X213423960Y-102115233D01*
X213454338Y-102123760D01*
X213651963Y-102178557D01*
X213841011Y-102229823D01*
X214019013Y-102276954D01*
X214183497Y-102319343D01*
X214331993Y-102356383D01*
X214462030Y-102387468D01*
X214571137Y-102411993D01*
X214656844Y-102429350D01*
X214716680Y-102438935D01*
X214748173Y-102440140D01*
X214760978Y-102436621D01*
X214806726Y-102417698D01*
X214865998Y-102387741D01*
X214929261Y-102351423D01*
X214933480Y-102348838D01*
X215104507Y-102234294D01*
X215268358Y-102106147D01*
X215421777Y-101968008D01*
X215561513Y-101823486D01*
X215684311Y-101676190D01*
X215786920Y-101529730D01*
X215866085Y-101387716D01*
X215918554Y-101253756D01*
X215938134Y-101181698D01*
X215951147Y-101119953D01*
X215955080Y-101079248D01*
X215949128Y-101064572D01*
X215935992Y-101069061D01*
X215897505Y-101084991D01*
X215838909Y-101110384D01*
X215765175Y-101143080D01*
X215681275Y-101180921D01*
X215493472Y-101263443D01*
X215268813Y-101355665D01*
X215043800Y-101441621D01*
X214827721Y-101517780D01*
X214629862Y-101580612D01*
X214584751Y-101593863D01*
X214464126Y-101628137D01*
X214356498Y-101657026D01*
X214265394Y-101679683D01*
X214194338Y-101695259D01*
X214146858Y-101702905D01*
X214126480Y-101701772D01*
X214132206Y-101693313D01*
X214158768Y-101665770D01*
X214203945Y-101622154D01*
X214264583Y-101565446D01*
X214337527Y-101498626D01*
X214419624Y-101424677D01*
X214518110Y-101336231D01*
X214697022Y-101173316D01*
X214868497Y-101014321D01*
X215030987Y-100860818D01*
X215182944Y-100714384D01*
X215322821Y-100576591D01*
X215449070Y-100449015D01*
X215560143Y-100333231D01*
X215654491Y-100230812D01*
X215730568Y-100143333D01*
X215786824Y-100072369D01*
X215821713Y-100019494D01*
X215833687Y-99986282D01*
X215833590Y-99984024D01*
X215818960Y-99963483D01*
X215778282Y-99951200D01*
X215709836Y-99946897D01*
X215611904Y-99950296D01*
X215578560Y-99952768D01*
X215368719Y-99983382D01*
X215146469Y-100040049D01*
X214916173Y-100121474D01*
X214682189Y-100226362D01*
X214659397Y-100237574D01*
X214589369Y-100270856D01*
X214531622Y-100296563D01*
X214491622Y-100312338D01*
X214474835Y-100315821D01*
X214474052Y-100311433D01*
X214488110Y-100287134D01*
X214522559Y-100246241D01*
X214574198Y-100191726D01*
X214639830Y-100126559D01*
X214716253Y-100053712D01*
X214800269Y-99976157D01*
X214888677Y-99896864D01*
X214978277Y-99818806D01*
X215065872Y-99744953D01*
X215148259Y-99678277D01*
X215222241Y-99621749D01*
X215328421Y-99548475D01*
X215492910Y-99453622D01*
X215652405Y-99384163D01*
X215804639Y-99340679D01*
X215947346Y-99323755D01*
X216078258Y-99333970D01*
X216195108Y-99371909D01*
X216201935Y-99375261D01*
X216287647Y-99432405D01*
X216373165Y-99514805D01*
X216452589Y-99615967D01*
X216520014Y-99729395D01*
X216532300Y-99754988D01*
X216565831Y-99834575D01*
X216604181Y-99936545D01*
X216646045Y-100056453D01*
X216690117Y-100189853D01*
X216735093Y-100332302D01*
X216779667Y-100479353D01*
X216822533Y-100626561D01*
X216862386Y-100769482D01*
X216897920Y-100903671D01*
X216927830Y-101024682D01*
X216950811Y-101128070D01*
X216965556Y-101209391D01*
X216970762Y-101264198D01*
X216968349Y-101318812D01*
X216955766Y-101398853D01*
X216931112Y-101483375D01*
X216892921Y-101575106D01*
X216839726Y-101676774D01*
X216770060Y-101791108D01*
X216682456Y-101920837D01*
X216575448Y-102068689D01*
X216447569Y-102237392D01*
X216272636Y-102464292D01*
X216244359Y-102737691D01*
X216243860Y-102742497D01*
X216206449Y-103064271D01*
X216159928Y-103401147D01*
X216127587Y-103605195D01*
X216106581Y-103737727D01*
G37*
G36*
X224658025Y-97522744D02*
G01*
X224700305Y-97558583D01*
X224776982Y-97624117D01*
X224843108Y-97681334D01*
X224895117Y-97727111D01*
X224929444Y-97758327D01*
X224942523Y-97771859D01*
X224935375Y-97783176D01*
X224904374Y-97806424D01*
X224854088Y-97837330D01*
X224790008Y-97872870D01*
X224717629Y-97910019D01*
X224642442Y-97945751D01*
X224569942Y-97977042D01*
X224554591Y-97983156D01*
X224461514Y-98017106D01*
X224354676Y-98051901D01*
X224240369Y-98085883D01*
X224124883Y-98117398D01*
X224014510Y-98144792D01*
X223915539Y-98166407D01*
X223834261Y-98180591D01*
X223776967Y-98185686D01*
X223775267Y-98185696D01*
X223751293Y-98192093D01*
X223752577Y-98214475D01*
X223753692Y-98217490D01*
X223769237Y-98265712D01*
X223790388Y-98339077D01*
X223815522Y-98431301D01*
X223843014Y-98536102D01*
X223871242Y-98647198D01*
X223898580Y-98758306D01*
X223923406Y-98863143D01*
X223944094Y-98955427D01*
X223977205Y-99114455D01*
X224019632Y-99341402D01*
X224053639Y-99559034D01*
X224079915Y-99774337D01*
X224099152Y-99994299D01*
X224112038Y-100225907D01*
X224119263Y-100476148D01*
X224121518Y-100752008D01*
X224121514Y-100775152D01*
X224121054Y-100950781D01*
X224119564Y-101100685D01*
X224116653Y-101231264D01*
X224111933Y-101348919D01*
X224105014Y-101460051D01*
X224095505Y-101571061D01*
X224083019Y-101688351D01*
X224067164Y-101818320D01*
X224047552Y-101967370D01*
X224046611Y-101974335D01*
X223975122Y-102410907D01*
X223878585Y-102855971D01*
X223759233Y-103301899D01*
X223619297Y-103741063D01*
X223461008Y-104165835D01*
X223286598Y-104568588D01*
X223269960Y-104603933D01*
X223222111Y-104702908D01*
X223172237Y-104802749D01*
X223122661Y-104899124D01*
X223075704Y-104987696D01*
X223033689Y-105064131D01*
X222998938Y-105124094D01*
X222973773Y-105163251D01*
X222960517Y-105177267D01*
X222956854Y-105174877D01*
X222937713Y-105152420D01*
X222907594Y-105111381D01*
X222871172Y-105057998D01*
X222827711Y-104994409D01*
X222738509Y-104872282D01*
X222635678Y-104739647D01*
X222525323Y-104604107D01*
X222413550Y-104473266D01*
X222306464Y-104354728D01*
X222129585Y-104165544D01*
X222078763Y-104264248D01*
X221950642Y-104497093D01*
X221743480Y-104821446D01*
X221506622Y-105138271D01*
X221239585Y-105448157D01*
X220941884Y-105751693D01*
X220613035Y-106049470D01*
X220525730Y-106124737D01*
X220238287Y-106380701D01*
X219975894Y-106628192D01*
X219735147Y-106870726D01*
X219512642Y-107111821D01*
X219304976Y-107354992D01*
X219108745Y-107603756D01*
X219103127Y-107611142D01*
X219055059Y-107672432D01*
X219013398Y-107722361D01*
X218982439Y-107755960D01*
X218966478Y-107768264D01*
X218954583Y-107761978D01*
X218928982Y-107730558D01*
X218897192Y-107677855D01*
X218862300Y-107609626D01*
X218827392Y-107531625D01*
X218795556Y-107449606D01*
X218780827Y-107405369D01*
X218754166Y-107314228D01*
X218728375Y-107214370D01*
X218707427Y-107120621D01*
X218692961Y-107050659D01*
X218679103Y-106987953D01*
X218668387Y-106944117D01*
X218662363Y-106925850D01*
X218658321Y-106925312D01*
X218632795Y-106936908D01*
X218589169Y-106964198D01*
X218532362Y-107003687D01*
X218467293Y-107051882D01*
X218398882Y-107105289D01*
X218332048Y-107160417D01*
X218152066Y-107329914D01*
X217986270Y-107525352D01*
X217848516Y-107735636D01*
X217737928Y-107962114D01*
X217653631Y-108206137D01*
X217633487Y-108284618D01*
X217594592Y-108515000D01*
X217580643Y-108759397D01*
X217591148Y-109013585D01*
X217625615Y-109273340D01*
X217683551Y-109534441D01*
X217764464Y-109792663D01*
X217867861Y-110043785D01*
X217870407Y-110049269D01*
X217905828Y-110128717D01*
X217926801Y-110183829D01*
X217934633Y-110218634D01*
X217930634Y-110237162D01*
X217902808Y-110262539D01*
X217851591Y-110300302D01*
X217782461Y-110346896D01*
X217700674Y-110399047D01*
X217611483Y-110453481D01*
X217520143Y-110506923D01*
X217431908Y-110556098D01*
X217352032Y-110597733D01*
X217254726Y-110643617D01*
X217140256Y-110693447D01*
X217025462Y-110739956D01*
X216924673Y-110777130D01*
X216710425Y-110850545D01*
X216609204Y-111016776D01*
X216413843Y-111322053D01*
X216117019Y-111735058D01*
X215795597Y-112127467D01*
X215450307Y-112498601D01*
X215081878Y-112847782D01*
X214691041Y-113174331D01*
X214278526Y-113477567D01*
X213845062Y-113756812D01*
X213391379Y-114011387D01*
X213376413Y-114019190D01*
X213184745Y-114116778D01*
X213010362Y-114200538D01*
X212844426Y-114274420D01*
X212678098Y-114342369D01*
X212502540Y-114408332D01*
X212475775Y-114417935D01*
X212397471Y-114445031D01*
X212329794Y-114467027D01*
X212279232Y-114481867D01*
X212252276Y-114487501D01*
X212223608Y-114482871D01*
X212168835Y-114467690D01*
X212094304Y-114443732D01*
X212005171Y-114412837D01*
X211906589Y-114376844D01*
X211803713Y-114337595D01*
X211701696Y-114296928D01*
X211605692Y-114256684D01*
X211546472Y-114230395D01*
X211423980Y-114172940D01*
X211286198Y-114105240D01*
X211140579Y-114031170D01*
X210994575Y-113954604D01*
X210855638Y-113879417D01*
X210731218Y-113809484D01*
X210628769Y-113748681D01*
X210347057Y-113567720D01*
X209920000Y-113264000D01*
X209518397Y-112940464D01*
X209141996Y-112596860D01*
X208790546Y-112232940D01*
X208463796Y-111848452D01*
X208161494Y-111443148D01*
X207883391Y-111016776D01*
X207782170Y-110850545D01*
X207567922Y-110777130D01*
X207470270Y-110741174D01*
X207355677Y-110694848D01*
X207240999Y-110645030D01*
X207140563Y-110597733D01*
X207061969Y-110556791D01*
X206973821Y-110507705D01*
X206882489Y-110454304D01*
X206793226Y-110399861D01*
X206711288Y-110347651D01*
X206641929Y-110300948D01*
X206590401Y-110263027D01*
X206561961Y-110237162D01*
X206561425Y-110236455D01*
X206558081Y-110217086D01*
X206566646Y-110181204D01*
X206588428Y-110124780D01*
X206624734Y-110043785D01*
X206634346Y-110022907D01*
X206744126Y-109747711D01*
X206827455Y-109463665D01*
X206882874Y-109176687D01*
X206908920Y-108892696D01*
X206910632Y-108740518D01*
X206891788Y-108476579D01*
X206844347Y-108226961D01*
X206767940Y-107990626D01*
X206662200Y-107766538D01*
X206526756Y-107553660D01*
X206361242Y-107350954D01*
X206344680Y-107333261D01*
X206288493Y-107277580D01*
X206222128Y-107216549D01*
X206149841Y-107153575D01*
X206075891Y-107092068D01*
X206004536Y-107035437D01*
X205940034Y-106987091D01*
X205886644Y-106950439D01*
X205848624Y-106928889D01*
X205830232Y-106925850D01*
X205824738Y-106942155D01*
X205814270Y-106984588D01*
X205800563Y-107046310D01*
X205785168Y-107120621D01*
X205773435Y-107175167D01*
X205749111Y-107274354D01*
X205722322Y-107370775D01*
X205697039Y-107449606D01*
X205676776Y-107503274D01*
X205642586Y-107583325D01*
X205607338Y-107655604D01*
X205574120Y-107714356D01*
X205546017Y-107753828D01*
X205526117Y-107768264D01*
X205525205Y-107768099D01*
X205507343Y-107753152D01*
X205474966Y-107717468D01*
X205432370Y-107666014D01*
X205383850Y-107603756D01*
X205328689Y-107531823D01*
X205129535Y-107285018D01*
X204917972Y-107042800D01*
X204690597Y-106801652D01*
X204444005Y-106558059D01*
X204174794Y-106308504D01*
X203879560Y-106049470D01*
X203645107Y-105840709D01*
X203338206Y-105538944D01*
X203062112Y-105231006D01*
X202816341Y-104916304D01*
X202600409Y-104594248D01*
X202413832Y-104264248D01*
X202363010Y-104165544D01*
X202186131Y-104354728D01*
X202124346Y-104422209D01*
X202013774Y-104548874D01*
X201902091Y-104683389D01*
X201795400Y-104818150D01*
X201699809Y-104945555D01*
X201621423Y-105057998D01*
X201605510Y-105081740D01*
X201571190Y-105130651D01*
X201545155Y-105164573D01*
X201532078Y-105177267D01*
X201528732Y-105175307D01*
X201510823Y-105151534D01*
X201481860Y-105104216D01*
X201444166Y-105037687D01*
X201400062Y-104956281D01*
X201351871Y-104864334D01*
X201301915Y-104766179D01*
X201252516Y-104666152D01*
X201205997Y-104568588D01*
X201108457Y-104351539D01*
X200919744Y-103876480D01*
X200756779Y-103384847D01*
X200620340Y-102879693D01*
X200511202Y-102364068D01*
X200430142Y-101841026D01*
X200377937Y-101313617D01*
X200375980Y-101283710D01*
X200370174Y-101152925D01*
X200366803Y-100999432D01*
X200365751Y-100830178D01*
X200366904Y-100652110D01*
X200370148Y-100472173D01*
X200375367Y-100297315D01*
X200382448Y-100134482D01*
X200391274Y-99990621D01*
X200401732Y-99872678D01*
X200415968Y-99751332D01*
X200445708Y-99532948D01*
X200480507Y-99311964D01*
X200518449Y-99100211D01*
X200557620Y-98909520D01*
X200559661Y-98900383D01*
X200579543Y-98814940D01*
X200603548Y-98716599D01*
X200629995Y-98611767D01*
X200657203Y-98506849D01*
X200683491Y-98408255D01*
X200707177Y-98322389D01*
X200726580Y-98255661D01*
X200740018Y-98214475D01*
X200740531Y-98213083D01*
X200740820Y-98191525D01*
X200715628Y-98185686D01*
X200707037Y-98185501D01*
X200644786Y-98178582D01*
X200559726Y-98162885D01*
X200458148Y-98140064D01*
X200346342Y-98111776D01*
X200230598Y-98079674D01*
X200117209Y-98045414D01*
X200012463Y-98010652D01*
X199922653Y-97977042D01*
X199862777Y-97951448D01*
X199787659Y-97916256D01*
X199714417Y-97879134D01*
X199648545Y-97843109D01*
X199595535Y-97811204D01*
X199560879Y-97786446D01*
X199550072Y-97771859D01*
X199553908Y-97767318D01*
X199578335Y-97744322D01*
X199622180Y-97705245D01*
X199681878Y-97653208D01*
X199753863Y-97591334D01*
X199834570Y-97522744D01*
X199903473Y-97464261D01*
X200095088Y-97297344D01*
X201626602Y-97297344D01*
X201979766Y-97297344D01*
X202074751Y-97297514D01*
X202169019Y-97298348D01*
X202237870Y-97300110D01*
X202284996Y-97303050D01*
X202314087Y-97307423D01*
X202328835Y-97313478D01*
X202332931Y-97321469D01*
X202332149Y-97328107D01*
X202324725Y-97363464D01*
X202310709Y-97421508D01*
X202291647Y-97495967D01*
X202269085Y-97580569D01*
X202247506Y-97661351D01*
X202150326Y-98061973D01*
X202062891Y-98484625D01*
X201986516Y-98921221D01*
X201922520Y-99363674D01*
X201872218Y-99803899D01*
X201836929Y-100233808D01*
X201833877Y-100286405D01*
X201828317Y-100420999D01*
X201824421Y-100574369D01*
X201822193Y-100739140D01*
X201821638Y-100907936D01*
X201822759Y-101073380D01*
X201825562Y-101228096D01*
X201830050Y-101364709D01*
X201836227Y-101475842D01*
X201845044Y-101588233D01*
X201855115Y-101701307D01*
X201865427Y-101803753D01*
X201875469Y-101891135D01*
X201884727Y-101959014D01*
X201892691Y-102002953D01*
X201898848Y-102018515D01*
X201898933Y-102018507D01*
X201909818Y-102004123D01*
X201931832Y-101966140D01*
X201961817Y-101910258D01*
X201996613Y-101842173D01*
X202006887Y-101821723D01*
X202105793Y-101633230D01*
X202214007Y-101440323D01*
X202328703Y-101247295D01*
X202447053Y-101058438D01*
X202566229Y-100878044D01*
X202683404Y-100710407D01*
X202795751Y-100559818D01*
X202900443Y-100430570D01*
X202994652Y-100326956D01*
X203097348Y-100222694D01*
X203116865Y-100384534D01*
X203132571Y-100499715D01*
X203171266Y-100721661D01*
X203220925Y-100950580D01*
X203278663Y-101172432D01*
X203375790Y-101481092D01*
X203531630Y-101883966D01*
X203716337Y-102274108D01*
X203929171Y-102650575D01*
X204169393Y-103012427D01*
X204436266Y-103358723D01*
X204729050Y-103688521D01*
X205047008Y-104000881D01*
X205389400Y-104294861D01*
X205755487Y-104569521D01*
X206144532Y-104823920D01*
X206168919Y-104838598D01*
X206239446Y-104879715D01*
X206322545Y-104926759D01*
X206413699Y-104977313D01*
X206508390Y-105028964D01*
X206602101Y-105079294D01*
X206690312Y-105125890D01*
X206768506Y-105166336D01*
X206832165Y-105198216D01*
X206876771Y-105219116D01*
X206897805Y-105226619D01*
X206903054Y-105224985D01*
X206912473Y-105200669D01*
X206912469Y-105150012D01*
X206903854Y-105076591D01*
X206887440Y-104983980D01*
X206864039Y-104875755D01*
X206834461Y-104755494D01*
X206799519Y-104626771D01*
X206760023Y-104493163D01*
X206716787Y-104358245D01*
X206670620Y-104225594D01*
X206659600Y-104194955D01*
X206633509Y-104119507D01*
X206613585Y-104057578D01*
X206601612Y-104014894D01*
X206599378Y-103997181D01*
X206605809Y-103994408D01*
X206637405Y-104000454D01*
X206687828Y-104022285D01*
X206752299Y-104057057D01*
X206826040Y-104101923D01*
X206904272Y-104154037D01*
X206982219Y-104210552D01*
X207055101Y-104268624D01*
X207134651Y-104339858D01*
X207291209Y-104504954D01*
X207442043Y-104696652D01*
X207584493Y-104910786D01*
X207715897Y-105143186D01*
X207833591Y-105389684D01*
X207934915Y-105646114D01*
X207992258Y-105818223D01*
X208086815Y-106159851D01*
X208165876Y-106530161D01*
X208229451Y-106929194D01*
X208277547Y-107356995D01*
X208279986Y-107388039D01*
X208284702Y-107476831D01*
X208288663Y-107591377D01*
X208291861Y-107726799D01*
X208294289Y-107878219D01*
X208295939Y-108040759D01*
X208296804Y-108209540D01*
X208296877Y-108379685D01*
X208296150Y-108546314D01*
X208294617Y-108704550D01*
X208292268Y-108849514D01*
X208289098Y-108976328D01*
X208285099Y-109080114D01*
X208280264Y-109155993D01*
X208276878Y-109195266D01*
X208272152Y-109258428D01*
X208271455Y-109298142D01*
X208275484Y-109320756D01*
X208284938Y-109332617D01*
X208300515Y-109340074D01*
X208362655Y-109355989D01*
X208448083Y-109364165D01*
X208539708Y-109362448D01*
X208624730Y-109350430D01*
X208726681Y-109327652D01*
X208759817Y-109411624D01*
X208807354Y-109522294D01*
X208885547Y-109680534D01*
X208977841Y-109847474D01*
X209079411Y-110014877D01*
X209185430Y-110174509D01*
X209291071Y-110318134D01*
X209433470Y-110493408D01*
X209705152Y-110794296D01*
X210001683Y-111082483D01*
X210324107Y-111358790D01*
X210673470Y-111624038D01*
X211050820Y-111879049D01*
X211457201Y-112124643D01*
X211893659Y-112361642D01*
X211944486Y-112387688D01*
X212035525Y-112433502D01*
X212115580Y-112472718D01*
X212180266Y-112503242D01*
X212225198Y-112522981D01*
X212245992Y-112529842D01*
X212250518Y-112529330D01*
X212287771Y-112517383D01*
X212348393Y-112491141D01*
X212428856Y-112452528D01*
X212525629Y-112403469D01*
X212635183Y-112345888D01*
X212753988Y-112281711D01*
X212878515Y-112212863D01*
X213005235Y-112141267D01*
X213130618Y-112068850D01*
X213251134Y-111997535D01*
X213363253Y-111929247D01*
X213463448Y-111865912D01*
X213496891Y-111844158D01*
X213818109Y-111623282D01*
X214122010Y-111392482D01*
X214407010Y-111153476D01*
X214671526Y-110907984D01*
X214913973Y-110657726D01*
X215132768Y-110404420D01*
X215326327Y-110149786D01*
X215493065Y-109895543D01*
X215631400Y-109643409D01*
X215739747Y-109395105D01*
X215765270Y-109327516D01*
X215867543Y-109350362D01*
X215945503Y-109361842D01*
X216037144Y-109364402D01*
X216123555Y-109357026D01*
X216191965Y-109340119D01*
X216201885Y-109335905D01*
X216213530Y-109326754D01*
X216219737Y-109309549D01*
X216221155Y-109278111D01*
X216218436Y-109226258D01*
X216212231Y-109147813D01*
X216210919Y-109129186D01*
X216207752Y-109061740D01*
X216204788Y-108967826D01*
X216202112Y-108852030D01*
X216199807Y-108718941D01*
X216197959Y-108573145D01*
X216196650Y-108419232D01*
X216195966Y-108261787D01*
X216195851Y-108196973D01*
X216195909Y-108016462D01*
X216196687Y-107863053D01*
X216198304Y-107732367D01*
X216200880Y-107620026D01*
X216204536Y-107521649D01*
X216209389Y-107432858D01*
X216215561Y-107349273D01*
X216223171Y-107266515D01*
X216250484Y-107024979D01*
X216299315Y-106689970D01*
X216358822Y-106370998D01*
X216427981Y-106073370D01*
X216505768Y-105802396D01*
X216525355Y-105742450D01*
X216635181Y-105447535D01*
X216760448Y-105172755D01*
X216899927Y-104919826D01*
X217052386Y-104690463D01*
X217216596Y-104486383D01*
X217391327Y-104309300D01*
X217575348Y-104160932D01*
X217767428Y-104042992D01*
X217802917Y-104024957D01*
X217858059Y-104000505D01*
X217889596Y-103993223D01*
X217899639Y-104002464D01*
X217899017Y-104005394D01*
X217890389Y-104032522D01*
X217873188Y-104082662D01*
X217849437Y-104149985D01*
X217821159Y-104228662D01*
X217806437Y-104269853D01*
X217761363Y-104403202D01*
X217719432Y-104537747D01*
X217681458Y-104669900D01*
X217648254Y-104796073D01*
X217620635Y-104912679D01*
X217599414Y-105016130D01*
X217585405Y-105102837D01*
X217579422Y-105169213D01*
X217582279Y-105211669D01*
X217594790Y-105226619D01*
X217600326Y-105225300D01*
X217631639Y-105211974D01*
X217684657Y-105186249D01*
X217754864Y-105150541D01*
X217837740Y-105107263D01*
X217928769Y-105058833D01*
X218023432Y-105007665D01*
X218117210Y-104956174D01*
X218205587Y-104906776D01*
X218284044Y-104861886D01*
X218348063Y-104823920D01*
X218640528Y-104636038D01*
X219012556Y-104366416D01*
X219361057Y-104077251D01*
X219685297Y-103769480D01*
X219984538Y-103444042D01*
X220258045Y-103101874D01*
X220505081Y-102743915D01*
X220724910Y-102371102D01*
X220916796Y-101984372D01*
X221080002Y-101584665D01*
X221213794Y-101172918D01*
X221256378Y-101013446D01*
X221306460Y-100796063D01*
X221347193Y-100582440D01*
X221375950Y-100385339D01*
X221379854Y-100352582D01*
X221387809Y-100290960D01*
X221394624Y-100255161D01*
X221402211Y-100240289D01*
X221412483Y-100241445D01*
X221427352Y-100253733D01*
X221447109Y-100272178D01*
X221543256Y-100372479D01*
X221649558Y-100498552D01*
X221763650Y-100646900D01*
X221883165Y-100814025D01*
X222005737Y-100996428D01*
X222129001Y-101190612D01*
X222250589Y-101393078D01*
X222368136Y-101600329D01*
X222479277Y-101808866D01*
X222497671Y-101844378D01*
X222540813Y-101925234D01*
X222572099Y-101979109D01*
X222592906Y-102008031D01*
X222604613Y-102014026D01*
X222608598Y-101999125D01*
X222608675Y-101997391D01*
X222611158Y-101969162D01*
X222616563Y-101916220D01*
X222624169Y-101845448D01*
X222633255Y-101763730D01*
X222640163Y-101692326D01*
X222649034Y-101564920D01*
X222656415Y-101415280D01*
X222662202Y-101249712D01*
X222666293Y-101074522D01*
X222668583Y-100896015D01*
X222668970Y-100720497D01*
X222667350Y-100554274D01*
X222663619Y-100403652D01*
X222657675Y-100274935D01*
X222635834Y-99975588D01*
X222586190Y-99489288D01*
X222519615Y-99001570D01*
X222437388Y-98520434D01*
X222340791Y-98053880D01*
X222231104Y-97609909D01*
X222225295Y-97588260D01*
X222203317Y-97504901D01*
X222184490Y-97431299D01*
X222170657Y-97374759D01*
X222163662Y-97342584D01*
X222156029Y-97297344D01*
X222511011Y-97297344D01*
X222865993Y-97297344D01*
X222772774Y-97217656D01*
X222690884Y-97145150D01*
X222552725Y-97013926D01*
X222398254Y-96857834D01*
X222228605Y-96678200D01*
X222044915Y-96476352D01*
X221848321Y-96253615D01*
X221639959Y-96011318D01*
X221420965Y-95750786D01*
X221192476Y-95473347D01*
X220955628Y-95180327D01*
X220711557Y-94873052D01*
X220461399Y-94552851D01*
X220206291Y-94221049D01*
X220158246Y-94158082D01*
X220093591Y-94073388D01*
X220033384Y-93994560D01*
X219982724Y-93928278D01*
X219946714Y-93881220D01*
X219869104Y-93779927D01*
X220009435Y-93667683D01*
X220108299Y-93586021D01*
X220365793Y-93348687D01*
X220616806Y-93081711D01*
X220859925Y-92787216D01*
X221093739Y-92467326D01*
X221316838Y-92124164D01*
X221527810Y-91759853D01*
X221725244Y-91376518D01*
X221907729Y-90976281D01*
X222073852Y-90561267D01*
X222098734Y-90494257D01*
X222128274Y-90412409D01*
X222147136Y-90355286D01*
X222156113Y-90319361D01*
X222155994Y-90301102D01*
X222147572Y-90296981D01*
X222131638Y-90303467D01*
X222113510Y-90310864D01*
X222068138Y-90326720D01*
X222002267Y-90348457D01*
X221921478Y-90374241D01*
X221831354Y-90402234D01*
X221828615Y-90403073D01*
X221542623Y-90485996D01*
X221227074Y-90568847D01*
X220884415Y-90651126D01*
X220517091Y-90732334D01*
X220127549Y-90811969D01*
X219718233Y-90889532D01*
X219291590Y-90964523D01*
X218850067Y-91036440D01*
X218396108Y-91104785D01*
X218299818Y-91118752D01*
X218180224Y-91136252D01*
X218073886Y-91151984D01*
X217984497Y-91165393D01*
X217915750Y-91175923D01*
X217871340Y-91183021D01*
X217854959Y-91186130D01*
X217858433Y-91193610D01*
X217877370Y-91223773D01*
X217910016Y-91272853D01*
X217953375Y-91336370D01*
X218004453Y-91409841D01*
X218032075Y-91449655D01*
X218094852Y-91542522D01*
X218162727Y-91645620D01*
X218233614Y-91755535D01*
X218305427Y-91868854D01*
X218376081Y-91982161D01*
X218443492Y-92092042D01*
X218505574Y-92195084D01*
X218560242Y-92287872D01*
X218605410Y-92366991D01*
X218638993Y-92429028D01*
X218658906Y-92470568D01*
X218663063Y-92488197D01*
X218656980Y-92487673D01*
X218625651Y-92477281D01*
X218571653Y-92456272D01*
X218499212Y-92426368D01*
X218412555Y-92389292D01*
X218315912Y-92346767D01*
X218293280Y-92336683D01*
X218035552Y-92222443D01*
X217776076Y-92108464D01*
X217517671Y-91995938D01*
X217263158Y-91886054D01*
X217015356Y-91780003D01*
X216777087Y-91678975D01*
X216551169Y-91584161D01*
X216340424Y-91496751D01*
X216147671Y-91417934D01*
X215975730Y-91348903D01*
X215827422Y-91290846D01*
X215705566Y-91244955D01*
X215682816Y-91236556D01*
X215630826Y-91217229D01*
X215559729Y-91190717D01*
X215475787Y-91159357D01*
X215385263Y-91125485D01*
X215256289Y-91078045D01*
X215080707Y-91016998D01*
X214933242Y-90970606D01*
X214813598Y-90938783D01*
X214721474Y-90921446D01*
X214656575Y-90918510D01*
X214642217Y-90920172D01*
X214568945Y-90937290D01*
X214469857Y-90970889D01*
X214346175Y-91020459D01*
X214199123Y-91085487D01*
X214029925Y-91165463D01*
X213839803Y-91259875D01*
X213751374Y-91305331D01*
X213562017Y-91407658D01*
X213397227Y-91504192D01*
X213258520Y-91593974D01*
X213147411Y-91676048D01*
X213065416Y-91749455D01*
X213050470Y-91765086D01*
X213027453Y-91791606D01*
X213007454Y-91820195D01*
X212988779Y-91855075D01*
X212969735Y-91900470D01*
X212948629Y-91960601D01*
X212923767Y-92039690D01*
X212893456Y-92141959D01*
X212856004Y-92271632D01*
X212850353Y-92292087D01*
X212834808Y-92352650D01*
X212815532Y-92431723D01*
X212793789Y-92523697D01*
X212770843Y-92622968D01*
X212747958Y-92723927D01*
X212726399Y-92820969D01*
X212707430Y-92908488D01*
X212692315Y-92980876D01*
X212682319Y-93032526D01*
X212678706Y-93057834D01*
X212679269Y-93063036D01*
X212687216Y-93071190D01*
X212709165Y-93073123D01*
X212750936Y-93068857D01*
X212818352Y-93058419D01*
X212887645Y-93046152D01*
X213109591Y-92994790D01*
X213318812Y-92927953D01*
X213511592Y-92847338D01*
X213684217Y-92754641D01*
X213832973Y-92651558D01*
X213954144Y-92539785D01*
X213980994Y-92509499D01*
X214049985Y-92415229D01*
X214095668Y-92318823D01*
X214123254Y-92210120D01*
X214140354Y-92110402D01*
X214422487Y-92120588D01*
X214544502Y-92126461D01*
X214906066Y-92162058D01*
X215251148Y-92224102D01*
X215578930Y-92312345D01*
X215888591Y-92426541D01*
X216179311Y-92566442D01*
X216450270Y-92731801D01*
X216498248Y-92765669D01*
X216566460Y-92816810D01*
X216635572Y-92871399D01*
X216701123Y-92925629D01*
X216758648Y-92975695D01*
X216803684Y-93017790D01*
X216831769Y-93048108D01*
X216838440Y-93062842D01*
X216829240Y-93062483D01*
X216793274Y-93056595D01*
X216735134Y-93045381D01*
X216660106Y-93029872D01*
X216573476Y-93011102D01*
X216404019Y-92974575D01*
X216122463Y-92918922D01*
X215864664Y-92875123D01*
X215626887Y-92842701D01*
X215405394Y-92821175D01*
X215196448Y-92810068D01*
X214996314Y-92808899D01*
X214893738Y-92810994D01*
X214813988Y-92813390D01*
X214757322Y-92816537D01*
X214719178Y-92820973D01*
X214694993Y-92827238D01*
X214680204Y-92835871D01*
X214670249Y-92847409D01*
X214668776Y-92849569D01*
X214647648Y-92881793D01*
X214616234Y-92930926D01*
X214580758Y-92987241D01*
X214563355Y-93013804D01*
X214487355Y-93112740D01*
X214391372Y-93218432D01*
X214281970Y-93324411D01*
X214165712Y-93424205D01*
X214049161Y-93511343D01*
X213934272Y-93586870D01*
X213721472Y-93709353D01*
X213496716Y-93816304D01*
X213255206Y-93909692D01*
X212992144Y-93991486D01*
X212702729Y-94063653D01*
X212462502Y-94117363D01*
X212363143Y-94633940D01*
X212350207Y-94701479D01*
X212326886Y-94824739D01*
X212306073Y-94936683D01*
X212288526Y-95033124D01*
X212275001Y-95109871D01*
X212266256Y-95162737D01*
X212263049Y-95187532D01*
X212259083Y-95210582D01*
X212246297Y-95224546D01*
X212236163Y-95216441D01*
X212229546Y-95187532D01*
X212228607Y-95178329D01*
X212222410Y-95138336D01*
X212211072Y-95072463D01*
X212195350Y-94984898D01*
X212176001Y-94879830D01*
X212153782Y-94761448D01*
X212129452Y-94633940D01*
X212030093Y-94117363D01*
X211789866Y-94063653D01*
X211625448Y-94024608D01*
X211351274Y-93947333D01*
X211100784Y-93859337D01*
X210869180Y-93758652D01*
X210651663Y-93643310D01*
X210443434Y-93511343D01*
X210409911Y-93487699D01*
X210292769Y-93396215D01*
X210177827Y-93293956D01*
X210071649Y-93187394D01*
X209980798Y-93082998D01*
X209911837Y-92987241D01*
X209907795Y-92980782D01*
X209872467Y-92924794D01*
X209841909Y-92877094D01*
X209822346Y-92847409D01*
X209812846Y-92836267D01*
X209798334Y-92827531D01*
X209774607Y-92821183D01*
X209737100Y-92816684D01*
X209681252Y-92813497D01*
X209602499Y-92811081D01*
X209496281Y-92808899D01*
X209385060Y-92808357D01*
X209180452Y-92815033D01*
X208964940Y-92831917D01*
X208734787Y-92859486D01*
X208486257Y-92898220D01*
X208215613Y-92948599D01*
X207919119Y-93011102D01*
X207855665Y-93024930D01*
X207776876Y-93041451D01*
X207713505Y-93053964D01*
X207670835Y-93061439D01*
X207654155Y-93062842D01*
X207656996Y-93053371D01*
X207680178Y-93026569D01*
X207721420Y-92987045D01*
X207776258Y-92938604D01*
X207840232Y-92885053D01*
X207908876Y-92830198D01*
X207977728Y-92777845D01*
X208042325Y-92731801D01*
X208128951Y-92674786D01*
X208406480Y-92517748D01*
X208703502Y-92386249D01*
X209019195Y-92280537D01*
X209352740Y-92200857D01*
X209703318Y-92147459D01*
X210070108Y-92120588D01*
X210352241Y-92110402D01*
X210369341Y-92210120D01*
X210376249Y-92245642D01*
X210408872Y-92349459D01*
X210461202Y-92444120D01*
X210538451Y-92539785D01*
X210572078Y-92574515D01*
X210702012Y-92683831D01*
X210858402Y-92783942D01*
X211037535Y-92873152D01*
X211235695Y-92949766D01*
X211449170Y-93012087D01*
X211674243Y-93058419D01*
X211705632Y-93063487D01*
X211761727Y-93071373D01*
X211794587Y-93073076D01*
X211810034Y-93068571D01*
X211813889Y-93057834D01*
X211813068Y-93049591D01*
X211806301Y-93011218D01*
X211793745Y-92949135D01*
X211776663Y-92868946D01*
X211756321Y-92776258D01*
X211733982Y-92676679D01*
X211710911Y-92575814D01*
X211688372Y-92479271D01*
X211667629Y-92392655D01*
X211649948Y-92321573D01*
X211636591Y-92271632D01*
X211614496Y-92194899D01*
X211581279Y-92081197D01*
X211554248Y-91992516D01*
X211531712Y-91924636D01*
X211511977Y-91873333D01*
X211493349Y-91834386D01*
X211474136Y-91803572D01*
X211452643Y-91776669D01*
X211427179Y-91749455D01*
X211395650Y-91719072D01*
X211300974Y-91641828D01*
X211177835Y-91556329D01*
X211027748Y-91463531D01*
X210852228Y-91364394D01*
X210652792Y-91259875D01*
X210602570Y-91234547D01*
X210417649Y-91143754D01*
X210253962Y-91067528D01*
X210112732Y-91006379D01*
X209995183Y-90960819D01*
X209902538Y-90931359D01*
X209836020Y-90918510D01*
X209797040Y-90918776D01*
X209714529Y-90931037D01*
X209604600Y-90957754D01*
X209466956Y-90999011D01*
X209301300Y-91054893D01*
X209107332Y-91125485D01*
X209038765Y-91151146D01*
X208952618Y-91183343D01*
X208877771Y-91211267D01*
X208820487Y-91232583D01*
X208787029Y-91244955D01*
X208753161Y-91257461D01*
X208615553Y-91309961D01*
X208451706Y-91374686D01*
X208263944Y-91450654D01*
X208054588Y-91536886D01*
X207825960Y-91632403D01*
X207580383Y-91736222D01*
X207320180Y-91847365D01*
X207047671Y-91964851D01*
X206765180Y-92087700D01*
X206475028Y-92214931D01*
X206179538Y-92345565D01*
X206121150Y-92371293D01*
X206029408Y-92410890D01*
X205950149Y-92444070D01*
X205887579Y-92469123D01*
X205845908Y-92484337D01*
X205829341Y-92488001D01*
X205831312Y-92475992D01*
X205848234Y-92439023D01*
X205879300Y-92380835D01*
X205922434Y-92304811D01*
X205975562Y-92214337D01*
X206036606Y-92112797D01*
X206103490Y-92003575D01*
X206174138Y-91890057D01*
X206246474Y-91775626D01*
X206318422Y-91663667D01*
X206387906Y-91557566D01*
X206452850Y-91460705D01*
X206511176Y-91376470D01*
X206528034Y-91352551D01*
X206572616Y-91288318D01*
X206607951Y-91235965D01*
X206630789Y-91200364D01*
X206637885Y-91186386D01*
X206628314Y-91184402D01*
X206590491Y-91178190D01*
X206527414Y-91168412D01*
X206442779Y-91155625D01*
X206340283Y-91140387D01*
X206223620Y-91123255D01*
X206096487Y-91104785D01*
X206091830Y-91104111D01*
X205637985Y-91035728D01*
X205196601Y-90963777D01*
X204770121Y-90888758D01*
X204360994Y-90811171D01*
X203971664Y-90731518D01*
X203604578Y-90650297D01*
X203262181Y-90568009D01*
X202946920Y-90485155D01*
X202661241Y-90402234D01*
X202585582Y-90378784D01*
X202502857Y-90352507D01*
X202434123Y-90329970D01*
X202384962Y-90313012D01*
X202360957Y-90303467D01*
X202360022Y-90302960D01*
X202343645Y-90296776D01*
X202335737Y-90302582D01*
X202337023Y-90324074D01*
X202348225Y-90364948D01*
X202370066Y-90428899D01*
X202403271Y-90519624D01*
X202413311Y-90546529D01*
X202599797Y-91006934D01*
X202809316Y-91456133D01*
X203038817Y-91887976D01*
X203285248Y-92296315D01*
X203322789Y-92354131D01*
X203538087Y-92665364D01*
X203757923Y-92948054D01*
X203985527Y-93205904D01*
X204224130Y-93442614D01*
X204476960Y-93661886D01*
X204493305Y-93675178D01*
X204550775Y-93722987D01*
X204586876Y-93756086D01*
X204605093Y-93778550D01*
X204608914Y-93794457D01*
X204601825Y-93807884D01*
X204599463Y-93810777D01*
X204578796Y-93837244D01*
X204542640Y-93884313D01*
X204494298Y-93947661D01*
X204437071Y-94022962D01*
X204374261Y-94105894D01*
X204227359Y-94299181D01*
X203992423Y-94604207D01*
X203759584Y-94901606D01*
X203530207Y-95189775D01*
X203305659Y-95467109D01*
X203087306Y-95732007D01*
X202876516Y-95982866D01*
X202674653Y-96218081D01*
X202483085Y-96436051D01*
X202303178Y-96635171D01*
X202136298Y-96813840D01*
X201983811Y-96970454D01*
X201847085Y-97103410D01*
X201727484Y-97211105D01*
X201626602Y-97297344D01*
X200095088Y-97297344D01*
X200266053Y-97148416D01*
X200611517Y-96833657D01*
X200938808Y-96521200D01*
X201246864Y-96212262D01*
X201534628Y-95908057D01*
X201801038Y-95609804D01*
X202045036Y-95318717D01*
X202265562Y-95036014D01*
X202461557Y-94762910D01*
X202631961Y-94500621D01*
X202775715Y-94250364D01*
X202891759Y-94013354D01*
X202929094Y-93929040D01*
X202777432Y-93676113D01*
X202665696Y-93486476D01*
X202433564Y-93070062D01*
X202215517Y-92647705D01*
X202012911Y-92222728D01*
X201827102Y-91798456D01*
X201659447Y-91378213D01*
X201511302Y-90965323D01*
X201384024Y-90563111D01*
X201278969Y-90174900D01*
X201197493Y-89804015D01*
X201183572Y-89727977D01*
X201166488Y-89626071D01*
X201150158Y-89520228D01*
X201135254Y-89415641D01*
X201122448Y-89317506D01*
X201112410Y-89231016D01*
X201105813Y-89161365D01*
X201103327Y-89113746D01*
X201105625Y-89093355D01*
X201107132Y-89092812D01*
X201130923Y-89095630D01*
X201178166Y-89105988D01*
X201242909Y-89122483D01*
X201319197Y-89143709D01*
X201490100Y-89191433D01*
X201822417Y-89276309D01*
X202180529Y-89358504D01*
X202560439Y-89437283D01*
X202958152Y-89511915D01*
X203369671Y-89581666D01*
X203791003Y-89645802D01*
X204218150Y-89703592D01*
X204647117Y-89754301D01*
X204713787Y-89761475D01*
X204916664Y-89781917D01*
X205128383Y-89801367D01*
X205346035Y-89819672D01*
X205566711Y-89836682D01*
X205787502Y-89852247D01*
X206005498Y-89866215D01*
X206217791Y-89878435D01*
X206421470Y-89888757D01*
X206613627Y-89897028D01*
X206791353Y-89903100D01*
X206951737Y-89906819D01*
X207091872Y-89908036D01*
X207208847Y-89906600D01*
X207299754Y-89902359D01*
X207361682Y-89895163D01*
X207366534Y-89894187D01*
X207413106Y-89882238D01*
X207484178Y-89861330D01*
X207574788Y-89833039D01*
X207679971Y-89798942D01*
X207794764Y-89760616D01*
X207914204Y-89719637D01*
X208008345Y-89687031D01*
X208248728Y-89605111D01*
X208475327Y-89529833D01*
X208684917Y-89462225D01*
X208874276Y-89403317D01*
X209040178Y-89354138D01*
X209179400Y-89315718D01*
X209199336Y-89310521D01*
X209280621Y-89290471D01*
X209343915Y-89278136D01*
X209399807Y-89272300D01*
X209458883Y-89271747D01*
X209531733Y-89275262D01*
X209604876Y-89281182D01*
X209702991Y-89293636D01*
X209809812Y-89312495D01*
X209930728Y-89338856D01*
X210071127Y-89373813D01*
X210236398Y-89418461D01*
X210342631Y-89449285D01*
X210489455Y-89494704D01*
X210656776Y-89548839D01*
X210839573Y-89609962D01*
X211032822Y-89676343D01*
X211231501Y-89746256D01*
X211430586Y-89817971D01*
X211625055Y-89889760D01*
X211809885Y-89959895D01*
X212246298Y-90128090D01*
X212682710Y-89959895D01*
X212841290Y-89899597D01*
X213034726Y-89827934D01*
X213233472Y-89756106D01*
X213432506Y-89685841D01*
X213626805Y-89618868D01*
X213811347Y-89556915D01*
X213981108Y-89501711D01*
X214131065Y-89454983D01*
X214256197Y-89418461D01*
X214386084Y-89383123D01*
X214531693Y-89346047D01*
X214656586Y-89317819D01*
X214766154Y-89297341D01*
X214865783Y-89283521D01*
X214960862Y-89275262D01*
X214977505Y-89274265D01*
X215046653Y-89271488D01*
X215104209Y-89273029D01*
X215160759Y-89280104D01*
X215226892Y-89293929D01*
X215313195Y-89315718D01*
X215362671Y-89328963D01*
X215512395Y-89371586D01*
X215687576Y-89424577D01*
X215884990Y-89486907D01*
X216101413Y-89557547D01*
X216333621Y-89635466D01*
X216578391Y-89719637D01*
X216597635Y-89726316D01*
X216716665Y-89766976D01*
X216830253Y-89804731D01*
X216933434Y-89838003D01*
X217021247Y-89865218D01*
X217088728Y-89884796D01*
X217130913Y-89895163D01*
X217150015Y-89898121D01*
X217221513Y-89903995D01*
X217320858Y-89907101D01*
X217445106Y-89907576D01*
X217591312Y-89905559D01*
X217756532Y-89901189D01*
X217937820Y-89894602D01*
X218132233Y-89885937D01*
X218336825Y-89875333D01*
X218548653Y-89862927D01*
X218764771Y-89848858D01*
X218982235Y-89833264D01*
X219198101Y-89816282D01*
X219409423Y-89798052D01*
X219613258Y-89778711D01*
X220063554Y-89729646D01*
X220542205Y-89668502D01*
X221015176Y-89598993D01*
X221478110Y-89521891D01*
X221926650Y-89437968D01*
X222356438Y-89347997D01*
X222763117Y-89252751D01*
X223142329Y-89153002D01*
X223188635Y-89140250D01*
X223265527Y-89119994D01*
X223328028Y-89104718D01*
X223370657Y-89095731D01*
X223387933Y-89094343D01*
X223389954Y-89111107D01*
X223387664Y-89155878D01*
X223381268Y-89223101D01*
X223371452Y-89307528D01*
X223358903Y-89403910D01*
X223344306Y-89506998D01*
X223328350Y-89611544D01*
X223311720Y-89712299D01*
X223295102Y-89804015D01*
X223260815Y-89971450D01*
X223168312Y-90350943D01*
X223052828Y-90746231D01*
X222915718Y-91153996D01*
X222758335Y-91570924D01*
X222582032Y-91993696D01*
X222388162Y-92418997D01*
X222178080Y-92843509D01*
X221953138Y-93263917D01*
X221714690Y-93676902D01*
X221562554Y-93930619D01*
X221646488Y-94104623D01*
X221679332Y-94171074D01*
X221822966Y-94432701D01*
X221994812Y-94706098D01*
X222193944Y-94990214D01*
X222419435Y-95283997D01*
X222670356Y-95586393D01*
X222945782Y-95896352D01*
X223244785Y-96212820D01*
X223566438Y-96534745D01*
X223909813Y-96861076D01*
X224273985Y-97190759D01*
X224397282Y-97297344D01*
X224658025Y-97522744D01*
G37*
G36*
X165916645Y-98698896D02*
G01*
X165923013Y-98782335D01*
X165908641Y-98799057D01*
X165825202Y-98805425D01*
X165808481Y-98791053D01*
X165802112Y-98707614D01*
X165816484Y-98690893D01*
X165899923Y-98684525D01*
X165916645Y-98698896D01*
G37*
G36*
X165830653Y-95249512D02*
G01*
X165821806Y-95284398D01*
X165755134Y-95380645D01*
X165712982Y-95415068D01*
X165651808Y-95428357D01*
X165657427Y-95387798D01*
X165727327Y-95297224D01*
X165794225Y-95243641D01*
X165830653Y-95249512D01*
G37*
G36*
X166210514Y-98375045D02*
G01*
X166397096Y-98427276D01*
X166539675Y-98494326D01*
X166596482Y-98566251D01*
X166583774Y-98616353D01*
X166510498Y-98642018D01*
X166344953Y-98625338D01*
X166138387Y-98585858D01*
X165922187Y-98520901D01*
X165811817Y-98450925D01*
X165818130Y-98380966D01*
X165872404Y-98354808D01*
X166021694Y-98347575D01*
X166210514Y-98375045D01*
G37*
G36*
X164642185Y-101754844D02*
G01*
X164648204Y-101843107D01*
X164646288Y-101845868D01*
X164566368Y-101876542D01*
X164438935Y-101876898D01*
X164322111Y-101852345D01*
X164274022Y-101808291D01*
X164275386Y-101796722D01*
X164304577Y-101680653D01*
X164490452Y-101680653D01*
X164522362Y-101712563D01*
X164554271Y-101680653D01*
X164522362Y-101648744D01*
X164490452Y-101680653D01*
X164304577Y-101680653D01*
X164316775Y-101632149D01*
X164382506Y-101511412D01*
X164450714Y-101475671D01*
X164502768Y-101513888D01*
X164583565Y-101626237D01*
X164608368Y-101680653D01*
X164642185Y-101754844D01*
G37*
G36*
X177299053Y-104360909D02*
G01*
X177233858Y-104697577D01*
X177060367Y-104992819D01*
X176781289Y-105229573D01*
X176529396Y-105331442D01*
X176206464Y-105351179D01*
X175876394Y-105273331D01*
X175564014Y-105107830D01*
X175294152Y-104864611D01*
X175091637Y-104553606D01*
X175079544Y-104527405D01*
X174974698Y-104196367D01*
X174976031Y-104135996D01*
X175541492Y-104135996D01*
X175545363Y-104282276D01*
X175604527Y-104402388D01*
X175739977Y-104550730D01*
X175889168Y-104674174D01*
X176133694Y-104775939D01*
X176371375Y-104758033D01*
X176587072Y-104619232D01*
X176707181Y-104436144D01*
X176736339Y-104221012D01*
X176678775Y-104007815D01*
X176552890Y-103816815D01*
X176377085Y-103668274D01*
X176169759Y-103582454D01*
X175949315Y-103579617D01*
X175734151Y-103680025D01*
X175627912Y-103807171D01*
X175550485Y-104059738D01*
X175541492Y-104135996D01*
X174976031Y-104135996D01*
X174981531Y-103886889D01*
X175100377Y-103560884D01*
X175182291Y-103430159D01*
X175416425Y-103202700D01*
X175707026Y-103046798D01*
X176011878Y-102988945D01*
X176110724Y-102998595D01*
X176365948Y-103077089D01*
X176638146Y-103213384D01*
X176880685Y-103381886D01*
X177046928Y-103557001D01*
X177093714Y-103631547D01*
X177253242Y-103999878D01*
X177281302Y-104221012D01*
X177299053Y-104360909D01*
G37*
G36*
X178721420Y-104397336D02*
G01*
X178706556Y-104687360D01*
X178594299Y-105210297D01*
X178378993Y-105674618D01*
X178069034Y-106068208D01*
X177672817Y-106378951D01*
X177198738Y-106594730D01*
X176795637Y-106671623D01*
X176332866Y-106668816D01*
X175862619Y-106587583D01*
X175428637Y-106431945D01*
X174951187Y-106143520D01*
X174540282Y-105771060D01*
X174210609Y-105335487D01*
X173968849Y-104853923D01*
X173821689Y-104343489D01*
X173799560Y-104091609D01*
X174904218Y-104091609D01*
X174971572Y-104446404D01*
X175123623Y-104780823D01*
X175353009Y-105068521D01*
X175652365Y-105283152D01*
X176002224Y-105413102D01*
X176375224Y-105444876D01*
X176720441Y-105362282D01*
X177020647Y-105166787D01*
X177133312Y-105053731D01*
X177291444Y-104823866D01*
X177365134Y-104561417D01*
X177369813Y-104224751D01*
X177341065Y-104000529D01*
X177210248Y-103636444D01*
X176973389Y-103337458D01*
X176623692Y-103093264D01*
X176427584Y-103002186D01*
X176049202Y-102911417D01*
X175695731Y-102939167D01*
X175378792Y-103083524D01*
X175110004Y-103342573D01*
X175053053Y-103426270D01*
X174928924Y-103742782D01*
X174904218Y-104091609D01*
X173799560Y-104091609D01*
X173775812Y-103821304D01*
X173837902Y-103304491D01*
X174014643Y-102810169D01*
X174216142Y-102484256D01*
X174559655Y-102125242D01*
X174974585Y-101851946D01*
X175440265Y-101674287D01*
X175936025Y-101602185D01*
X176441197Y-101645560D01*
X176885467Y-101777309D01*
X177393594Y-102036622D01*
X177837529Y-102386987D01*
X178204777Y-102813322D01*
X178482839Y-103300546D01*
X178659218Y-103833578D01*
X178702378Y-104224751D01*
X178721420Y-104397336D01*
G37*
G36*
X168980011Y-96810755D02*
G01*
X168994608Y-97040613D01*
X169024228Y-97346994D01*
X169024683Y-97349629D01*
X169059119Y-97549264D01*
X169097605Y-97635667D01*
X169216868Y-97651719D01*
X169375057Y-97599137D01*
X169514889Y-97501126D01*
X169584464Y-97384466D01*
X169627237Y-97285592D01*
X169756200Y-97245226D01*
X169859038Y-97259804D01*
X169949100Y-97312467D01*
X169954313Y-97370307D01*
X169900617Y-97501225D01*
X169798703Y-97650327D01*
X169677136Y-97778068D01*
X169564482Y-97844906D01*
X169468227Y-97854099D01*
X169267384Y-97858927D01*
X168997840Y-97857848D01*
X168690596Y-97850658D01*
X168637819Y-97848897D01*
X168322207Y-97835066D01*
X168099589Y-97815214D01*
X167939541Y-97783647D01*
X167811635Y-97734673D01*
X167685446Y-97662600D01*
X167517579Y-97525039D01*
X167421724Y-97346700D01*
X167427166Y-97309045D01*
X167681407Y-97309045D01*
X167682188Y-97312834D01*
X167741907Y-97371505D01*
X167867602Y-97455333D01*
X167914064Y-97479720D01*
X168119962Y-97555369D01*
X168346245Y-97605405D01*
X168638693Y-97645490D01*
X168638693Y-97349629D01*
X168638693Y-97053769D01*
X168345399Y-97053769D01*
X168274701Y-97057166D01*
X168073949Y-97093531D01*
X167882010Y-97157682D01*
X167738093Y-97234545D01*
X167681407Y-97309045D01*
X167427166Y-97309045D01*
X167447426Y-97168858D01*
X167596401Y-97004200D01*
X167766671Y-96880167D01*
X167628310Y-96656294D01*
X167563691Y-96545409D01*
X167513594Y-96409915D01*
X167872864Y-96409915D01*
X167882020Y-96521826D01*
X167943527Y-96624668D01*
X168094181Y-96706020D01*
X168213148Y-96753537D01*
X168402749Y-96805119D01*
X168512306Y-96774404D01*
X168562715Y-96648766D01*
X168574874Y-96415578D01*
X168574874Y-96032663D01*
X168335553Y-96034693D01*
X168304946Y-96035337D01*
X168062101Y-96082515D01*
X167919474Y-96206239D01*
X167872864Y-96409915D01*
X167513594Y-96409915D01*
X167502980Y-96381209D01*
X167526826Y-96243608D01*
X167635838Y-96086635D01*
X167786901Y-95944001D01*
X168043117Y-95812137D01*
X168382088Y-95737552D01*
X168821990Y-95714545D01*
X168995982Y-95716677D01*
X169272752Y-95734269D01*
X169442184Y-95773028D01*
X169517408Y-95837066D01*
X169511554Y-95930494D01*
X169504999Y-95944573D01*
X169407374Y-96011564D01*
X169205261Y-96032663D01*
X168938174Y-96032663D01*
X168958763Y-96415578D01*
X168980011Y-96810755D01*
G37*
G36*
X172576110Y-94792842D02*
G01*
X172976066Y-94860698D01*
X173273912Y-94923233D01*
X173457035Y-94978717D01*
X173545590Y-95030407D01*
X173728301Y-95160712D01*
X173830162Y-95239030D01*
X173977867Y-95352597D01*
X174278635Y-95593171D01*
X174614956Y-95869545D01*
X174971178Y-96168830D01*
X175331651Y-96478136D01*
X175680724Y-96784574D01*
X176002746Y-97075255D01*
X176220897Y-97269769D01*
X176456957Y-97468059D01*
X176657020Y-97623634D01*
X176759842Y-97691808D01*
X176792948Y-97713758D01*
X176796464Y-97715526D01*
X176910061Y-97756272D01*
X177133633Y-97823818D01*
X177454147Y-97914645D01*
X177858574Y-98025232D01*
X178333881Y-98152059D01*
X178867038Y-98291608D01*
X179445013Y-98440357D01*
X180054774Y-98594788D01*
X180347001Y-98668243D01*
X181111346Y-98860844D01*
X181763746Y-99026148D01*
X182313102Y-99166573D01*
X182768315Y-99284538D01*
X183138288Y-99382459D01*
X183431921Y-99462756D01*
X183658117Y-99527845D01*
X183825777Y-99580145D01*
X183943802Y-99622074D01*
X184021094Y-99656049D01*
X184066554Y-99684489D01*
X184125805Y-99754010D01*
X184181379Y-99835734D01*
X184230133Y-99907430D01*
X184348422Y-100103058D01*
X184348525Y-100103239D01*
X184478502Y-100390391D01*
X184546549Y-100672343D01*
X184548208Y-100900800D01*
X184548321Y-100916392D01*
X184491749Y-101058916D01*
X184479476Y-101089837D01*
X184476901Y-101093006D01*
X184460718Y-101151537D01*
X184531339Y-101203376D01*
X184708162Y-101263232D01*
X184922558Y-101336490D01*
X185042830Y-101421466D01*
X185076667Y-101525850D01*
X185083518Y-101546985D01*
X185068126Y-101744472D01*
X185032680Y-101960775D01*
X184990441Y-102125150D01*
X184941659Y-102198005D01*
X184878094Y-102199055D01*
X184865264Y-102196104D01*
X184769727Y-102241999D01*
X184659709Y-102378743D01*
X184646251Y-102400174D01*
X184499041Y-102613637D01*
X184300472Y-102878621D01*
X184080799Y-103156703D01*
X183870282Y-103409460D01*
X183699176Y-103598471D01*
X183657661Y-103643806D01*
X183550466Y-103795764D01*
X183506513Y-103917566D01*
X183493434Y-104019719D01*
X183409832Y-104153878D01*
X183234475Y-104241929D01*
X182950482Y-104295343D01*
X182769495Y-104323597D01*
X182525245Y-104381682D01*
X182345402Y-104447438D01*
X182340393Y-104449988D01*
X182206688Y-104533535D01*
X182155250Y-104632474D01*
X182156803Y-104801817D01*
X182149454Y-104998255D01*
X182092984Y-105105111D01*
X182053143Y-105124045D01*
X181987314Y-105134743D01*
X181885397Y-105131789D01*
X181732622Y-105112918D01*
X181514223Y-105075868D01*
X181215429Y-105018375D01*
X180821474Y-104938175D01*
X180317588Y-104833004D01*
X180304676Y-104830293D01*
X179933976Y-104752872D01*
X179607737Y-104685516D01*
X179346061Y-104632314D01*
X179169051Y-104597355D01*
X179096813Y-104584727D01*
X179038629Y-104525276D01*
X178972690Y-104358966D01*
X178905859Y-104106026D01*
X178844532Y-103786683D01*
X178764869Y-103404418D01*
X182371074Y-103404418D01*
X182471482Y-103481975D01*
X182531722Y-103510473D01*
X182667498Y-103607610D01*
X182733187Y-103653204D01*
X182909258Y-103670148D01*
X183121461Y-103585273D01*
X183350680Y-103404269D01*
X183370338Y-103384560D01*
X183508419Y-103234516D01*
X183691436Y-103023024D01*
X183901076Y-102772686D01*
X184119028Y-102506102D01*
X184326981Y-102245873D01*
X184506624Y-102014599D01*
X184639645Y-101834880D01*
X184707735Y-101729319D01*
X184753941Y-101630596D01*
X184778678Y-101525850D01*
X184717390Y-101471071D01*
X184550494Y-101428835D01*
X184529786Y-101424502D01*
X184401489Y-101413548D01*
X184400183Y-101414410D01*
X184320413Y-101467069D01*
X184240252Y-101612477D01*
X184184784Y-101700798D01*
X184039331Y-101877995D01*
X183840063Y-102088162D01*
X183613125Y-102302529D01*
X183438555Y-102458790D01*
X183252477Y-102626992D01*
X183119894Y-102748804D01*
X183061809Y-102805079D01*
X183010557Y-102845541D01*
X182876557Y-102935511D01*
X182694849Y-103049875D01*
X182538155Y-103155175D01*
X182393480Y-103295135D01*
X182371074Y-103404418D01*
X178764869Y-103404418D01*
X178757955Y-103371239D01*
X178598080Y-102915736D01*
X178371101Y-102527605D01*
X178062344Y-102176641D01*
X177960040Y-102081411D01*
X177763771Y-101925777D01*
X177552822Y-101804080D01*
X177299167Y-101704157D01*
X176974778Y-101613844D01*
X176551630Y-101520977D01*
X176482572Y-101507264D01*
X176025571Y-101441838D01*
X175627383Y-101441820D01*
X175241252Y-101510754D01*
X174820422Y-101652182D01*
X174799573Y-101660448D01*
X174437080Y-101828012D01*
X174167499Y-102014721D01*
X173958158Y-102248956D01*
X173776387Y-102559096D01*
X173712004Y-102690363D01*
X173626013Y-102891958D01*
X173578064Y-103073221D01*
X173557275Y-103283437D01*
X173552764Y-103571891D01*
X173552316Y-103628870D01*
X173551602Y-103719683D01*
X173540051Y-103961507D01*
X173514507Y-104096634D01*
X173472990Y-104139162D01*
X173465980Y-104138772D01*
X173360709Y-104123039D01*
X173152687Y-104086938D01*
X172860694Y-104034035D01*
X172503511Y-103967893D01*
X172099920Y-103892078D01*
X171668702Y-103810153D01*
X171228637Y-103725682D01*
X170798506Y-103642231D01*
X170397090Y-103563363D01*
X170043170Y-103492643D01*
X169755527Y-103433635D01*
X169699983Y-103422042D01*
X169357100Y-103351532D01*
X169001721Y-103279868D01*
X168702512Y-103220921D01*
X168434569Y-103168541D01*
X168071477Y-103096354D01*
X167745226Y-103030352D01*
X167573531Y-102995570D01*
X167273277Y-102935534D01*
X166904405Y-102862340D01*
X166498196Y-102782194D01*
X166085929Y-102701297D01*
X165835818Y-102651012D01*
X165339702Y-102545291D01*
X164825912Y-102429430D01*
X164342216Y-102314328D01*
X163936381Y-102210884D01*
X163785051Y-102170224D01*
X163458742Y-102080168D01*
X163229328Y-102010274D01*
X163077328Y-101952266D01*
X162983261Y-101897870D01*
X162927649Y-101838811D01*
X162891011Y-101766813D01*
X162881435Y-101743995D01*
X162807046Y-101598037D01*
X162756290Y-101572098D01*
X162725816Y-101668475D01*
X162718544Y-101787178D01*
X162712277Y-101889467D01*
X162708562Y-101963996D01*
X162657934Y-102291261D01*
X162565783Y-102597668D01*
X162483674Y-102773402D01*
X162228013Y-103128027D01*
X161899695Y-103385284D01*
X161512531Y-103538719D01*
X161080335Y-103581878D01*
X160616918Y-103508307D01*
X160422695Y-103420240D01*
X160174262Y-103252869D01*
X159918165Y-103038591D01*
X159689136Y-102806651D01*
X159521906Y-102586291D01*
X159370403Y-102280184D01*
X159232853Y-101819412D01*
X159186927Y-101398270D01*
X159979580Y-101398270D01*
X160014991Y-101724704D01*
X160137882Y-102032722D01*
X160342498Y-102295053D01*
X160623083Y-102484427D01*
X160684928Y-102511853D01*
X160888874Y-102583249D01*
X161045756Y-102590449D01*
X161203769Y-102537888D01*
X161252938Y-102512849D01*
X161249832Y-102497484D01*
X161130606Y-102514082D01*
X160978389Y-102522901D01*
X160694952Y-102452483D01*
X160434232Y-102285292D01*
X160222269Y-102040658D01*
X160085098Y-101737912D01*
X160072754Y-101690589D01*
X160049552Y-101450256D01*
X160474142Y-101450256D01*
X160498718Y-101662348D01*
X160602119Y-101863504D01*
X160680147Y-101942417D01*
X160863388Y-102027208D01*
X161049233Y-102010226D01*
X161200150Y-101889820D01*
X161268350Y-101765771D01*
X161289896Y-101567647D01*
X161206129Y-101334213D01*
X161163885Y-101261969D01*
X161008226Y-101118097D01*
X160788283Y-101074372D01*
X160630688Y-101123710D01*
X160520696Y-101259839D01*
X160474142Y-101450256D01*
X160049552Y-101450256D01*
X160040224Y-101353631D01*
X160103309Y-101066008D01*
X160243443Y-100838234D01*
X160442057Y-100680822D01*
X160680586Y-100604286D01*
X160940463Y-100619138D01*
X161203120Y-100735892D01*
X161449991Y-100965062D01*
X161476088Y-100998112D01*
X161583537Y-101166633D01*
X161641862Y-101350825D01*
X161665903Y-101567647D01*
X161670205Y-101606442D01*
X161678918Y-101803735D01*
X161665826Y-101965260D01*
X161615467Y-102087964D01*
X161515728Y-102219958D01*
X161504433Y-102233415D01*
X161411445Y-102351489D01*
X161400882Y-102390287D01*
X161468444Y-102362801D01*
X161584315Y-102265162D01*
X161693632Y-102054947D01*
X161742246Y-101787178D01*
X161729115Y-101494206D01*
X161653200Y-101208383D01*
X161550669Y-101027648D01*
X162831156Y-101027648D01*
X162837465Y-101072463D01*
X162915046Y-101234585D01*
X163057051Y-101419910D01*
X163233093Y-101592463D01*
X163412785Y-101716265D01*
X163447074Y-101732651D01*
X163655507Y-101811976D01*
X163928023Y-101895221D01*
X164214864Y-101966839D01*
X164758754Y-102085694D01*
X164736896Y-101939935D01*
X164937186Y-101939935D01*
X164956308Y-102048997D01*
X164986260Y-102085694D01*
X165016960Y-102123307D01*
X165058506Y-102134498D01*
X165223285Y-102174452D01*
X165474090Y-102232632D01*
X165784936Y-102303237D01*
X166129842Y-102380468D01*
X166482824Y-102458526D01*
X166817900Y-102531612D01*
X167109087Y-102593926D01*
X167330402Y-102639669D01*
X167459934Y-102666137D01*
X167792903Y-102737165D01*
X168162879Y-102819055D01*
X168511055Y-102898895D01*
X168511298Y-102898952D01*
X168890138Y-102983979D01*
X169365748Y-103084768D01*
X169909107Y-103195578D01*
X170491192Y-103310673D01*
X171082982Y-103424313D01*
X171655455Y-103530760D01*
X172179589Y-103624276D01*
X172524086Y-103684047D01*
X172780396Y-103725189D01*
X172945777Y-103742175D01*
X173038206Y-103733072D01*
X173075659Y-103695947D01*
X173076113Y-103628870D01*
X173057544Y-103529907D01*
X173009618Y-103417719D01*
X172887945Y-103371859D01*
X172848387Y-103369233D01*
X172683622Y-103344879D01*
X172447615Y-103300458D01*
X172177420Y-103242707D01*
X172123207Y-103230526D01*
X171781573Y-103156360D01*
X171426823Y-103082820D01*
X171127638Y-103024204D01*
X171014817Y-103002900D01*
X170739481Y-102949935D01*
X170382242Y-102880383D01*
X169957897Y-102797192D01*
X169481241Y-102703308D01*
X168967069Y-102601676D01*
X168430176Y-102495243D01*
X167885359Y-102386956D01*
X167347411Y-102279759D01*
X166831130Y-102176599D01*
X166351309Y-102080423D01*
X165922745Y-101994177D01*
X165560232Y-101920806D01*
X165278567Y-101863257D01*
X165092544Y-101824476D01*
X165016960Y-101807409D01*
X164962981Y-101823291D01*
X164937186Y-101939935D01*
X164736896Y-101939935D01*
X164715198Y-101795241D01*
X164702220Y-101713436D01*
X164668500Y-101533256D01*
X164640638Y-101423993D01*
X164638754Y-101420524D01*
X164559552Y-101373163D01*
X164394789Y-101310008D01*
X164178783Y-101240781D01*
X163945849Y-101175206D01*
X163730305Y-101123004D01*
X163566467Y-101093899D01*
X163488652Y-101097612D01*
X163487415Y-101099177D01*
X163528008Y-101131348D01*
X163652599Y-101168298D01*
X163687298Y-101176602D01*
X163800625Y-101231262D01*
X163810690Y-101317964D01*
X163796816Y-101383358D01*
X163836920Y-101340963D01*
X163937946Y-101287264D01*
X164130127Y-101300201D01*
X164169322Y-101307945D01*
X164307126Y-101343066D01*
X164362814Y-101371244D01*
X164355336Y-101396013D01*
X164336901Y-101425377D01*
X164291948Y-101496980D01*
X164193112Y-101623117D01*
X164094483Y-101730794D01*
X164031717Y-101776382D01*
X164007971Y-101765670D01*
X163979899Y-101680653D01*
X163972699Y-101636615D01*
X163916080Y-101584925D01*
X163900826Y-101586779D01*
X163852261Y-101648744D01*
X163837567Y-101716712D01*
X163792850Y-101708360D01*
X163738525Y-101622884D01*
X163695701Y-101482675D01*
X163683891Y-101425377D01*
X164043718Y-101425377D01*
X164075628Y-101457286D01*
X164107538Y-101425377D01*
X164075628Y-101393467D01*
X164043718Y-101425377D01*
X163683891Y-101425377D01*
X163679237Y-101402797D01*
X163642127Y-101295464D01*
X163608118Y-101315053D01*
X163605660Y-101325882D01*
X163574960Y-101461162D01*
X163531261Y-101572708D01*
X163429924Y-101594494D01*
X163283670Y-101551861D01*
X163142635Y-101472363D01*
X163086432Y-101387026D01*
X163091962Y-101365324D01*
X163277889Y-101365324D01*
X163284468Y-101405868D01*
X163341708Y-101457286D01*
X163379490Y-101431614D01*
X163405527Y-101325882D01*
X163391940Y-101253460D01*
X163341708Y-101233920D01*
X163316784Y-101256669D01*
X163277889Y-101365324D01*
X163091962Y-101365324D01*
X163118896Y-101259634D01*
X163213109Y-101128140D01*
X163327999Y-101066821D01*
X163339871Y-101065545D01*
X163345374Y-101044847D01*
X163245980Y-101010553D01*
X163232364Y-101007113D01*
X163000552Y-100961137D01*
X162871275Y-100967798D01*
X162831156Y-101027648D01*
X161550669Y-101027648D01*
X161513462Y-100962061D01*
X161324016Y-100764119D01*
X161048388Y-100589079D01*
X160766453Y-100523548D01*
X160495688Y-100570694D01*
X160413237Y-100626199D01*
X160253570Y-100733684D01*
X160194221Y-100799236D01*
X160037404Y-101080691D01*
X159979580Y-101398270D01*
X159186927Y-101398270D01*
X159181550Y-101348966D01*
X159179170Y-100953460D01*
X158703566Y-100793553D01*
X158688632Y-100788474D01*
X158423458Y-100681723D01*
X158179011Y-100556619D01*
X158006484Y-100439184D01*
X157825537Y-100297504D01*
X157703550Y-100236923D01*
X157663227Y-100262383D01*
X157713890Y-100366995D01*
X157864859Y-100543870D01*
X157925266Y-100610466D01*
X158010582Y-100729892D01*
X158024804Y-100796468D01*
X158005236Y-100804417D01*
X157888700Y-100788581D01*
X157703948Y-100729126D01*
X157482556Y-100639491D01*
X157256101Y-100533113D01*
X157056162Y-100423431D01*
X156914313Y-100323883D01*
X156781922Y-100173440D01*
X156720665Y-100022468D01*
X157927532Y-100022468D01*
X157931771Y-100108790D01*
X158036291Y-100219135D01*
X158222428Y-100338367D01*
X158471514Y-100451348D01*
X158751219Y-100557285D01*
X158966583Y-100633685D01*
X159098649Y-100668834D01*
X159166184Y-100665438D01*
X159187956Y-100626199D01*
X159182732Y-100553821D01*
X159173656Y-100514754D01*
X159126927Y-100444475D01*
X159024009Y-100376439D01*
X158842804Y-100297932D01*
X158561213Y-100196241D01*
X158389467Y-100138237D01*
X158162447Y-100066967D01*
X158001569Y-100023385D01*
X157933806Y-100015273D01*
X157927532Y-100022468D01*
X156720665Y-100022468D01*
X156675546Y-99911269D01*
X156673250Y-99897421D01*
X156660813Y-99754030D01*
X156693709Y-99646542D01*
X156792618Y-99539985D01*
X156978218Y-99399386D01*
X157019913Y-99366938D01*
X157058535Y-99305317D01*
X157047855Y-99207096D01*
X156989088Y-99031215D01*
X156933872Y-98827642D01*
X156884028Y-98550196D01*
X156874242Y-98461628D01*
X157349279Y-98461628D01*
X157356379Y-98605099D01*
X157395040Y-98789587D01*
X157454450Y-98968307D01*
X157523795Y-99094475D01*
X157560316Y-99127452D01*
X157680540Y-99189386D01*
X157881470Y-99255849D01*
X158178298Y-99331512D01*
X158586218Y-99421043D01*
X159542537Y-99621118D01*
X159817262Y-99317674D01*
X160091988Y-99014231D01*
X160607040Y-99057185D01*
X160644914Y-99060539D01*
X160922525Y-99095564D01*
X161173026Y-99143072D01*
X161346227Y-99193788D01*
X161376694Y-99206180D01*
X161545436Y-99263948D01*
X161662554Y-99287437D01*
X161680123Y-99288629D01*
X161830165Y-99352504D01*
X162017461Y-99496503D01*
X162214725Y-99696710D01*
X162394674Y-99929207D01*
X162497326Y-100066417D01*
X162632096Y-100208773D01*
X162735427Y-100276161D01*
X162755464Y-100280645D01*
X162895028Y-100308528D01*
X163125378Y-100352296D01*
X163419646Y-100406894D01*
X163750965Y-100467264D01*
X163859555Y-100486764D01*
X164175475Y-100542145D01*
X164441752Y-100586863D01*
X164633092Y-100616750D01*
X164724207Y-100627638D01*
X164747570Y-100620628D01*
X164784079Y-100550596D01*
X164793886Y-100470499D01*
X165009121Y-100470499D01*
X165021499Y-100610592D01*
X165053654Y-100683710D01*
X165110190Y-100716640D01*
X165136708Y-100724219D01*
X165306299Y-100763420D01*
X165590560Y-100820664D01*
X165991384Y-100896296D01*
X166510669Y-100990664D01*
X167150310Y-101104112D01*
X167912202Y-101236987D01*
X168798241Y-101389635D01*
X168972588Y-101419524D01*
X169611234Y-101528988D01*
X170142868Y-101620039D01*
X170582586Y-101695219D01*
X170945482Y-101757070D01*
X171246651Y-101808134D01*
X171501187Y-101850954D01*
X171724187Y-101888070D01*
X171930743Y-101922027D01*
X172135952Y-101955365D01*
X172354908Y-101990627D01*
X172602706Y-102030355D01*
X172636061Y-102035683D01*
X172944933Y-102083557D01*
X173209347Y-102122050D01*
X173402147Y-102147355D01*
X173496173Y-102155662D01*
X173563549Y-102118720D01*
X173685460Y-102002768D01*
X173825516Y-101835865D01*
X173936226Y-101701864D01*
X174136493Y-101493549D01*
X174322091Y-101334451D01*
X174577822Y-101149201D01*
X174400343Y-101112213D01*
X174387684Y-101109832D01*
X174266196Y-101089388D01*
X174034521Y-101051683D01*
X173705060Y-100998673D01*
X173290216Y-100932318D01*
X172802390Y-100854575D01*
X172253985Y-100767403D01*
X171657402Y-100672759D01*
X171025043Y-100572601D01*
X170369310Y-100468889D01*
X169702606Y-100363579D01*
X169037332Y-100258630D01*
X168385890Y-100155999D01*
X167760683Y-100057646D01*
X167174111Y-99965528D01*
X166638578Y-99881602D01*
X166166485Y-99807828D01*
X165770234Y-99746163D01*
X165462227Y-99698565D01*
X165254866Y-99666992D01*
X165160553Y-99653403D01*
X165123429Y-99651473D01*
X165073522Y-99673203D01*
X165043455Y-99748780D01*
X165026132Y-99902800D01*
X165016545Y-100113957D01*
X165014461Y-100159856D01*
X165011913Y-100236643D01*
X165009121Y-100470499D01*
X164793886Y-100470499D01*
X164803700Y-100390344D01*
X164809548Y-100121386D01*
X164809550Y-100113957D01*
X164809415Y-99877028D01*
X164793984Y-99720693D01*
X164741264Y-99623927D01*
X164629263Y-99565706D01*
X164435989Y-99525007D01*
X164139447Y-99480805D01*
X164099716Y-99474819D01*
X163846593Y-99435112D01*
X163514436Y-99381269D01*
X163141824Y-99319599D01*
X162767337Y-99256413D01*
X162557852Y-99220906D01*
X162117328Y-99147147D01*
X161623503Y-99065345D01*
X161122717Y-98983160D01*
X160661306Y-98908252D01*
X160428376Y-98870651D01*
X159920393Y-98788386D01*
X159386077Y-98701569D01*
X158876215Y-98618460D01*
X158441592Y-98547315D01*
X158191941Y-98507550D01*
X157872777Y-98460691D01*
X157614324Y-98427497D01*
X157438265Y-98410678D01*
X157366286Y-98412943D01*
X157349279Y-98461628D01*
X156874242Y-98461628D01*
X156852663Y-98266332D01*
X156841363Y-98088662D01*
X156840781Y-97898130D01*
X156854240Y-97832838D01*
X157278894Y-97832838D01*
X157280125Y-97937291D01*
X157301956Y-98116920D01*
X157371738Y-98215781D01*
X157515919Y-98257658D01*
X157760943Y-98266332D01*
X157845877Y-98269914D01*
X158058068Y-98293269D01*
X158311441Y-98332788D01*
X158572451Y-98381915D01*
X158807550Y-98434092D01*
X158983192Y-98482764D01*
X159065829Y-98521373D01*
X159067699Y-98523015D01*
X159150995Y-98545327D01*
X159333598Y-98575213D01*
X159590197Y-98608968D01*
X159895477Y-98642883D01*
X160199546Y-98676376D01*
X160563907Y-98721946D01*
X160892623Y-98768424D01*
X161139950Y-98809677D01*
X161240516Y-98827881D01*
X161546131Y-98876455D01*
X161897088Y-98925474D01*
X162235763Y-98966683D01*
X162387532Y-98985525D01*
X162715268Y-99038114D01*
X163015889Y-99100485D01*
X163239319Y-99162849D01*
X163388126Y-99209099D01*
X163635817Y-99265589D01*
X163834712Y-99287793D01*
X163837412Y-99287801D01*
X164072181Y-99305080D01*
X164298995Y-99345418D01*
X164442509Y-99382255D01*
X164660252Y-99435093D01*
X164788722Y-99453342D01*
X164851406Y-99433896D01*
X164871791Y-99373653D01*
X164873367Y-99269507D01*
X164873410Y-99260932D01*
X164884191Y-99155889D01*
X165192462Y-99155889D01*
X165192462Y-99534893D01*
X165495603Y-99572484D01*
X165572901Y-99582597D01*
X165851488Y-99624155D01*
X166117839Y-99669745D01*
X166280954Y-99696464D01*
X166569218Y-99734117D01*
X166851759Y-99762239D01*
X166886735Y-99765033D01*
X167444017Y-99817345D01*
X167921884Y-99877332D01*
X168304261Y-99942673D01*
X168575075Y-100011047D01*
X168691940Y-100042081D01*
X168940752Y-100090090D01*
X169246739Y-100135760D01*
X169568432Y-100172358D01*
X169803223Y-100197166D01*
X170088195Y-100234485D01*
X170315402Y-100272420D01*
X170450099Y-100305715D01*
X170629783Y-100351521D01*
X170840452Y-100372362D01*
X171037131Y-100391125D01*
X171235167Y-100440881D01*
X171240789Y-100442972D01*
X171398803Y-100485958D01*
X171632510Y-100532844D01*
X171893467Y-100573843D01*
X172165128Y-100610436D01*
X172486167Y-100653711D01*
X172755025Y-100689983D01*
X172868518Y-100705755D01*
X173149040Y-100746550D01*
X173478826Y-100796115D01*
X173808040Y-100847019D01*
X173822619Y-100849282D01*
X174156205Y-100891118D01*
X174564438Y-100928273D01*
X174996986Y-100956784D01*
X175403517Y-100972686D01*
X175670154Y-100981152D01*
X176387871Y-101032787D01*
X177025460Y-101123100D01*
X177138088Y-101149201D01*
X177571892Y-101249733D01*
X178016137Y-101410324D01*
X178347168Y-101602515D01*
X178483395Y-101722724D01*
X178683227Y-101937271D01*
X178857803Y-102162965D01*
X179099557Y-102517639D01*
X180298899Y-102660391D01*
X180677217Y-102706068D01*
X181034205Y-102750431D01*
X181334899Y-102789094D01*
X181555803Y-102819032D01*
X181673422Y-102837225D01*
X181733203Y-102846410D01*
X181842972Y-102822688D01*
X181912744Y-102702604D01*
X181926383Y-102666319D01*
X181960339Y-102557476D01*
X181969335Y-102454093D01*
X181949394Y-102324575D01*
X181896541Y-102137327D01*
X181806800Y-101860754D01*
X181792660Y-101817617D01*
X181712623Y-101543555D01*
X182113360Y-101543555D01*
X182126890Y-101677053D01*
X182200251Y-101904020D01*
X182220703Y-101969180D01*
X182274433Y-102229289D01*
X182295980Y-102486416D01*
X182296979Y-102551838D01*
X182320685Y-102735637D01*
X182375754Y-102796547D01*
X182545821Y-102749869D01*
X182758580Y-102602883D01*
X182969208Y-102374308D01*
X183065832Y-102236920D01*
X183134420Y-102090323D01*
X183168637Y-101913087D01*
X183182910Y-101656772D01*
X183183584Y-101631975D01*
X183184761Y-101414410D01*
X183177238Y-101260436D01*
X183162451Y-101202010D01*
X183153226Y-101204007D01*
X183062399Y-101247313D01*
X182919758Y-101329410D01*
X182717269Y-101414821D01*
X182407663Y-101457048D01*
X182311523Y-101458411D01*
X182171093Y-101478887D01*
X182113360Y-101543555D01*
X181712623Y-101543555D01*
X181710649Y-101536796D01*
X181686489Y-101347760D01*
X181726770Y-101227896D01*
X181838084Y-101154590D01*
X182027022Y-101105229D01*
X182264070Y-101058916D01*
X181976884Y-100934383D01*
X181822932Y-100879381D01*
X181548125Y-100797409D01*
X181169953Y-100694110D01*
X180699480Y-100572289D01*
X180147769Y-100434749D01*
X179525881Y-100284294D01*
X178844880Y-100123727D01*
X178115829Y-99955852D01*
X178028990Y-99936059D01*
X177626312Y-99843853D01*
X177145162Y-99733165D01*
X176621950Y-99612397D01*
X176093085Y-99489949D01*
X175594975Y-99374221D01*
X175357562Y-99318998D01*
X174916224Y-99216616D01*
X174504058Y-99121335D01*
X174144846Y-99038636D01*
X173862367Y-98974000D01*
X173680402Y-98932910D01*
X173645563Y-98925679D01*
X173404255Y-98888857D01*
X173080907Y-98854022D01*
X172713547Y-98824808D01*
X172340201Y-98804848D01*
X172286296Y-98802684D01*
X171897599Y-98783515D01*
X171509468Y-98759017D01*
X171245771Y-98738468D01*
X173544627Y-98738468D01*
X173626775Y-98782664D01*
X173830403Y-98849036D01*
X174156509Y-98937891D01*
X174606092Y-99049538D01*
X175180151Y-99184284D01*
X175382891Y-99230910D01*
X176435450Y-99473122D01*
X177371775Y-99688920D01*
X178198816Y-99879993D01*
X178923524Y-100048030D01*
X179552847Y-100194719D01*
X180093735Y-100321751D01*
X180553139Y-100430813D01*
X180938008Y-100523595D01*
X181255292Y-100601785D01*
X181511940Y-100667074D01*
X181714903Y-100721149D01*
X181871130Y-100765700D01*
X181987570Y-100802415D01*
X182071175Y-100832984D01*
X182128893Y-100859096D01*
X182167674Y-100882439D01*
X182182669Y-100892966D01*
X182319784Y-100976355D01*
X182410457Y-101010553D01*
X182411066Y-101010544D01*
X182497919Y-100972999D01*
X182660388Y-100873762D01*
X182875761Y-100729418D01*
X183121325Y-100556549D01*
X183374367Y-100371740D01*
X183380594Y-100367022D01*
X184285904Y-100367022D01*
X184306281Y-100563819D01*
X184317211Y-100641254D01*
X184359046Y-100845490D01*
X184402493Y-100962782D01*
X184438342Y-100984197D01*
X184457385Y-100900800D01*
X184450412Y-100703655D01*
X184433818Y-100574714D01*
X184391206Y-100392486D01*
X184340700Y-100288831D01*
X184326569Y-100276580D01*
X184291907Y-100277349D01*
X184285904Y-100367022D01*
X183380594Y-100367022D01*
X183612175Y-100191574D01*
X183812038Y-100032634D01*
X183951241Y-99911505D01*
X184007074Y-99844770D01*
X184008512Y-99835734D01*
X184006026Y-99806859D01*
X183985617Y-99777693D01*
X183938451Y-99745717D01*
X183855694Y-99708414D01*
X183728510Y-99663267D01*
X183548064Y-99607758D01*
X183305523Y-99539369D01*
X182992050Y-99455583D01*
X182598812Y-99353882D01*
X182116973Y-99231749D01*
X181537698Y-99086666D01*
X180852154Y-98916115D01*
X180051504Y-98717579D01*
X179940622Y-98690091D01*
X179331703Y-98538647D01*
X178758814Y-98395350D01*
X178234513Y-98263396D01*
X177771358Y-98145980D01*
X177381907Y-98046298D01*
X177078720Y-97967543D01*
X176874353Y-97912912D01*
X176781365Y-97885598D01*
X176725977Y-97867880D01*
X176580878Y-97867722D01*
X176404958Y-97948468D01*
X176286124Y-98010645D01*
X176057690Y-98112079D01*
X175814041Y-98205310D01*
X175798687Y-98210572D01*
X175588980Y-98274640D01*
X175306559Y-98351501D01*
X174979419Y-98434579D01*
X174635551Y-98517298D01*
X174474375Y-98554022D01*
X174302947Y-98593082D01*
X174009601Y-98655355D01*
X173783504Y-98697542D01*
X173652649Y-98713065D01*
X173582960Y-98716139D01*
X173544627Y-98738468D01*
X171245771Y-98738468D01*
X171164245Y-98732115D01*
X170904271Y-98705731D01*
X170898561Y-98705025D01*
X170567789Y-98665362D01*
X170191936Y-98622096D01*
X169851256Y-98584467D01*
X169810872Y-98580064D01*
X169471637Y-98538769D01*
X169069509Y-98483981D01*
X168631555Y-98419971D01*
X168184842Y-98351011D01*
X167756439Y-98281373D01*
X167373412Y-98215328D01*
X167062830Y-98157148D01*
X166851759Y-98111104D01*
X166846498Y-98109782D01*
X166599772Y-98059415D01*
X166292601Y-98012254D01*
X165990201Y-97978348D01*
X165479648Y-97934444D01*
X165399874Y-98195111D01*
X165385725Y-98243893D01*
X165338967Y-98451285D01*
X165320100Y-98616332D01*
X165304146Y-98722239D01*
X165256281Y-98776884D01*
X165227734Y-98816503D01*
X165202240Y-98953526D01*
X165192462Y-99155889D01*
X164884191Y-99155889D01*
X164890082Y-99098489D01*
X164927777Y-98997060D01*
X164951989Y-98955623D01*
X165006986Y-98811923D01*
X165063982Y-98617337D01*
X165087926Y-98532930D01*
X165185330Y-98261512D01*
X165296757Y-98018972D01*
X165347562Y-97921655D01*
X165419492Y-97768029D01*
X165447739Y-97682660D01*
X165451938Y-97669393D01*
X165454882Y-97663560D01*
X165703894Y-97663560D01*
X165706064Y-97673272D01*
X165744044Y-97703445D01*
X165837202Y-97735808D01*
X165995773Y-97772087D01*
X166229996Y-97814012D01*
X166550107Y-97863310D01*
X166966344Y-97921709D01*
X167488942Y-97990936D01*
X168128141Y-98072719D01*
X168293248Y-98093628D01*
X168772853Y-98154652D01*
X169246326Y-98215280D01*
X169683538Y-98271631D01*
X170054363Y-98319828D01*
X170328673Y-98355992D01*
X170570110Y-98386217D01*
X170836387Y-98412929D01*
X171006784Y-98421675D01*
X171075059Y-98413685D01*
X171034968Y-98390188D01*
X170880272Y-98352416D01*
X170604727Y-98301597D01*
X170497874Y-98275603D01*
X170357910Y-98181400D01*
X170322662Y-98023828D01*
X170387648Y-97792373D01*
X170414386Y-97730586D01*
X170484374Y-97618928D01*
X170585667Y-97573151D01*
X170766306Y-97564322D01*
X170978463Y-97582497D01*
X171183484Y-97672384D01*
X171308119Y-97850714D01*
X171367860Y-98132110D01*
X171385599Y-98262035D01*
X171425794Y-98419458D01*
X171471319Y-98489759D01*
X171565188Y-98509225D01*
X171723608Y-98531536D01*
X171893688Y-98549649D01*
X172029453Y-98558749D01*
X172084924Y-98554022D01*
X172081127Y-98543799D01*
X172026298Y-98452599D01*
X171919658Y-98290498D01*
X171778381Y-98082216D01*
X171619639Y-97852473D01*
X171460607Y-97625992D01*
X171318460Y-97427491D01*
X171210370Y-97281693D01*
X171153511Y-97213317D01*
X171080056Y-97127454D01*
X170990885Y-96983622D01*
X170921164Y-96858865D01*
X170755440Y-96598827D01*
X170558690Y-96321926D01*
X170350655Y-96053176D01*
X170151080Y-95817593D01*
X169979705Y-95640193D01*
X169856275Y-95545990D01*
X169722946Y-95506938D01*
X169486296Y-95463028D01*
X169173229Y-95417686D01*
X168850389Y-95378705D01*
X170632259Y-95378705D01*
X170682921Y-95482878D01*
X170791513Y-95643730D01*
X170939831Y-95835396D01*
X171109672Y-96032011D01*
X171121438Y-96044976D01*
X171216345Y-96160815D01*
X171255276Y-96229497D01*
X171258040Y-96239704D01*
X171313756Y-96325443D01*
X171418558Y-96453516D01*
X171429861Y-96466505D01*
X171566112Y-96642157D01*
X171672183Y-96808085D01*
X171732838Y-96912394D01*
X171866556Y-97119365D01*
X172036796Y-97367323D01*
X172225647Y-97631753D01*
X172415197Y-97888141D01*
X172587534Y-98111970D01*
X172724746Y-98278727D01*
X172808922Y-98363896D01*
X172923048Y-98419355D01*
X173104275Y-98451332D01*
X173147050Y-98447730D01*
X173335824Y-98418546D01*
X173619161Y-98364346D01*
X173975949Y-98289639D01*
X174385073Y-98198934D01*
X174825421Y-98096741D01*
X175275879Y-97987567D01*
X175473319Y-97938559D01*
X175781133Y-97861296D01*
X175992274Y-97805966D01*
X176124894Y-97766961D01*
X176197147Y-97738672D01*
X176227187Y-97715491D01*
X176233166Y-97691808D01*
X176217530Y-97668272D01*
X176123181Y-97568932D01*
X175956302Y-97406896D01*
X175731750Y-97195733D01*
X175464377Y-96949009D01*
X175169040Y-96680293D01*
X174860592Y-96403151D01*
X174553889Y-96131152D01*
X174263785Y-95877863D01*
X174005135Y-95656851D01*
X173520854Y-95249129D01*
X172094854Y-95285280D01*
X171892819Y-95290742D01*
X171497817Y-95303514D01*
X171155778Y-95317353D01*
X170885367Y-95331354D01*
X170705243Y-95344610D01*
X170634070Y-95356215D01*
X170632259Y-95378705D01*
X168850389Y-95378705D01*
X168809459Y-95373763D01*
X168420701Y-95334112D01*
X168032668Y-95301584D01*
X167671074Y-95279032D01*
X167361633Y-95269307D01*
X167073770Y-95266834D01*
X166755352Y-95792372D01*
X166564866Y-96109500D01*
X166340916Y-96489308D01*
X166136737Y-96842884D01*
X165961637Y-97153663D01*
X165824924Y-97405079D01*
X165735906Y-97580567D01*
X165703894Y-97663560D01*
X165454882Y-97663560D01*
X165504735Y-97564786D01*
X165610488Y-97373771D01*
X165759624Y-97113153D01*
X165942569Y-96799738D01*
X166149749Y-96450332D01*
X166228055Y-96319009D01*
X166427171Y-95982930D01*
X166598631Y-95690447D01*
X166732903Y-95458004D01*
X166820456Y-95302050D01*
X166851759Y-95239030D01*
X166850315Y-95234895D01*
X166778888Y-95212250D01*
X166633011Y-95203015D01*
X166605264Y-95203344D01*
X166530597Y-95212339D01*
X166476171Y-95236340D01*
X166458719Y-95244036D01*
X166377111Y-95312180D01*
X166273255Y-95430515D01*
X166134633Y-95612787D01*
X165948726Y-95872741D01*
X165930114Y-95899357D01*
X165703015Y-96224121D01*
X165678556Y-96259157D01*
X165559282Y-96426183D01*
X165455723Y-96571202D01*
X165253705Y-96841934D01*
X165085177Y-97055250D01*
X164969055Y-97187917D01*
X164962813Y-97195048D01*
X164899289Y-97245226D01*
X164818149Y-97286893D01*
X164734116Y-97404774D01*
X164664463Y-97512286D01*
X164582765Y-97564322D01*
X164542015Y-97575338D01*
X164467373Y-97660050D01*
X164435966Y-97687979D01*
X164291980Y-97726141D01*
X164051488Y-97749892D01*
X163733870Y-97758894D01*
X163358506Y-97752812D01*
X162944776Y-97731307D01*
X162512060Y-97694044D01*
X162312105Y-97674091D01*
X161969931Y-97641719D01*
X161562786Y-97604568D01*
X161125578Y-97565812D01*
X160693216Y-97528625D01*
X160352116Y-97497158D01*
X159919128Y-97450538D01*
X159511711Y-97399920D01*
X159163784Y-97349579D01*
X158909269Y-97303790D01*
X158834386Y-97288413D01*
X158690784Y-97264089D01*
X164338967Y-97264089D01*
X164355455Y-97336406D01*
X164415977Y-97328724D01*
X164494110Y-97238392D01*
X164494228Y-97238171D01*
X164562315Y-97150239D01*
X164616973Y-97179599D01*
X164645812Y-97212085D01*
X164703875Y-97197497D01*
X164707441Y-97187917D01*
X164675258Y-97099534D01*
X164573995Y-96983272D01*
X164477183Y-96899704D01*
X164434534Y-96884167D01*
X164449862Y-96951315D01*
X164460104Y-97035562D01*
X164392105Y-97184301D01*
X164338967Y-97264089D01*
X158690784Y-97264089D01*
X158512853Y-97233950D01*
X158197516Y-97195789D01*
X157947153Y-97181407D01*
X157824961Y-97184423D01*
X157560596Y-97229501D01*
X157392779Y-97341566D01*
X157304537Y-97537162D01*
X157278894Y-97832838D01*
X156854240Y-97832838D01*
X156870764Y-97752677D01*
X156943788Y-97603115D01*
X157072329Y-97400260D01*
X157158249Y-97273196D01*
X157298394Y-97099054D01*
X157448488Y-96973815D01*
X157571880Y-96916059D01*
X159640201Y-96916059D01*
X159695166Y-96934373D01*
X159858498Y-96955269D01*
X160110303Y-96976240D01*
X160430542Y-96995632D01*
X160799175Y-97011788D01*
X161264879Y-97027541D01*
X161796360Y-97040790D01*
X162224515Y-97043464D01*
X162563191Y-97034238D01*
X162826232Y-97011791D01*
X163027484Y-96974799D01*
X163180791Y-96921938D01*
X163299999Y-96851885D01*
X163398953Y-96763318D01*
X163411779Y-96749303D01*
X163432967Y-96712664D01*
X163409769Y-96688938D01*
X163325568Y-96676858D01*
X163163749Y-96675156D01*
X162907693Y-96682563D01*
X162540786Y-96697811D01*
X162464161Y-96701274D01*
X162060973Y-96722410D01*
X161655136Y-96747834D01*
X161290052Y-96774651D01*
X161009128Y-96799967D01*
X160946814Y-96806295D01*
X160620487Y-96833799D01*
X160297321Y-96853392D01*
X160039070Y-96861178D01*
X159849840Y-96868191D01*
X159698304Y-96888047D01*
X159640201Y-96916059D01*
X157571880Y-96916059D01*
X157632068Y-96887887D01*
X157872671Y-96831681D01*
X158193835Y-96795609D01*
X158619095Y-96770080D01*
X158794732Y-96761005D01*
X159212944Y-96736525D01*
X159688845Y-96705805D01*
X160176355Y-96671876D01*
X160629397Y-96637772D01*
X160829189Y-96622447D01*
X161207434Y-96595589D01*
X164636135Y-96595589D01*
X164698450Y-96607035D01*
X164761032Y-96622099D01*
X164861364Y-96710959D01*
X164862733Y-96712664D01*
X164903701Y-96763704D01*
X164961305Y-96747279D01*
X164971991Y-96718454D01*
X164934408Y-96637228D01*
X164910709Y-96593106D01*
X164981231Y-96507209D01*
X165035867Y-96464424D01*
X165057287Y-96426183D01*
X164969095Y-96419637D01*
X164868335Y-96438259D01*
X164717576Y-96513336D01*
X164675309Y-96546413D01*
X164636135Y-96595589D01*
X161207434Y-96595589D01*
X161323874Y-96587321D01*
X161843670Y-96553606D01*
X162337820Y-96524513D01*
X162755567Y-96503254D01*
X163732994Y-96459394D01*
X164323960Y-95968844D01*
X165064824Y-95968844D01*
X165068948Y-95992268D01*
X165132274Y-96031497D01*
X165227581Y-96010403D01*
X165297022Y-95936935D01*
X165321343Y-95892083D01*
X165394366Y-95841206D01*
X165408425Y-95881230D01*
X165355629Y-95983044D01*
X165289512Y-96090103D01*
X165256281Y-96174502D01*
X165279583Y-96221645D01*
X165354782Y-96188622D01*
X165461030Y-96070048D01*
X165523416Y-95975984D01*
X165530811Y-95899357D01*
X165456005Y-95816777D01*
X165364244Y-95743629D01*
X165281866Y-95723664D01*
X165256281Y-95809296D01*
X165245162Y-95853940D01*
X165160553Y-95905025D01*
X165116515Y-95912225D01*
X165064824Y-95968844D01*
X164323960Y-95968844D01*
X164765869Y-95602024D01*
X164847152Y-95534710D01*
X165093835Y-95332725D01*
X165485266Y-95332725D01*
X165616002Y-95463461D01*
X165746737Y-95594197D01*
X165858817Y-95423142D01*
X165917800Y-95324476D01*
X165933230Y-95236340D01*
X165874658Y-95155849D01*
X165816200Y-95107308D01*
X165741913Y-95108095D01*
X165631843Y-95196168D01*
X165485266Y-95332725D01*
X165093835Y-95332725D01*
X165160943Y-95277777D01*
X165446246Y-95048593D01*
X165685766Y-94860766D01*
X165749615Y-94812689D01*
X166877985Y-94812689D01*
X166892290Y-94882201D01*
X166892867Y-94882690D01*
X166974571Y-94903370D01*
X167162240Y-94929796D01*
X167435058Y-94959682D01*
X167772211Y-94990741D01*
X168152884Y-95020686D01*
X169358281Y-95107933D01*
X169553348Y-94964017D01*
X169609499Y-94925532D01*
X169750687Y-94860477D01*
X169932750Y-94828313D01*
X170198705Y-94819398D01*
X170439353Y-94813831D01*
X170704785Y-94797375D01*
X170904271Y-94773951D01*
X170954721Y-94763746D01*
X170996859Y-94744319D01*
X170957185Y-94723022D01*
X170824388Y-94697293D01*
X170587154Y-94664573D01*
X170234171Y-94622302D01*
X170187365Y-94616934D01*
X169785354Y-94575732D01*
X169436094Y-94552394D01*
X169094681Y-94545958D01*
X168716211Y-94555462D01*
X168255779Y-94579947D01*
X168009325Y-94596761D01*
X167556917Y-94639494D01*
X167214654Y-94690370D01*
X166986892Y-94748423D01*
X166877985Y-94812689D01*
X165749615Y-94812689D01*
X165862212Y-94727905D01*
X165958291Y-94663618D01*
X165964576Y-94660743D01*
X166088376Y-94629351D01*
X166314574Y-94591613D01*
X166620715Y-94550569D01*
X166984347Y-94509260D01*
X167383017Y-94470725D01*
X167402956Y-94468964D01*
X167877172Y-94429412D01*
X168257939Y-94404123D01*
X168577385Y-94392543D01*
X168867634Y-94394123D01*
X169160813Y-94408310D01*
X169489047Y-94434551D01*
X170207457Y-94502805D01*
X170889719Y-94574647D01*
X171520324Y-94648087D01*
X172086659Y-94721395D01*
X172243701Y-94744319D01*
X172576110Y-94792842D01*
G37*
%TD*%
M02*
