%TF.GenerationSoftware,KiCad,Pcbnew,9.0.5*%
%TF.CreationDate,2025-11-04T14:22:13-07:00*%
%TF.ProjectId,Tx,54782e6b-6963-4616-945f-706362585858,rev?*%
%TF.SameCoordinates,Original*%
%TF.FileFunction,Copper,L2,Bot*%
%TF.FilePolarity,Positive*%
%FSLAX46Y46*%
G04 Gerber Fmt 4.6, Leading zero omitted, Abs format (unit mm)*
G04 Created by KiCad (PCBNEW 9.0.5) date 2025-11-04 14:22:13*
%MOMM*%
%LPD*%
G01*
G04 APERTURE LIST*
G04 Aperture macros list*
%AMRoundRect*
0 Rectangle with rounded corners*
0 $1 Rounding radius*
0 $2 $3 $4 $5 $6 $7 $8 $9 X,Y pos of 4 corners*
0 Add a 4 corners polygon primitive as box body*
4,1,4,$2,$3,$4,$5,$6,$7,$8,$9,$2,$3,0*
0 Add four circle primitives for the rounded corners*
1,1,$1+$1,$2,$3*
1,1,$1+$1,$4,$5*
1,1,$1+$1,$6,$7*
1,1,$1+$1,$8,$9*
0 Add four rect primitives between the rounded corners*
20,1,$1+$1,$2,$3,$4,$5,0*
20,1,$1+$1,$4,$5,$6,$7,0*
20,1,$1+$1,$6,$7,$8,$9,0*
20,1,$1+$1,$8,$9,$2,$3,0*%
G04 Aperture macros list end*
%TA.AperFunction,ComponentPad*%
%ADD10RoundRect,0.476250X-0.476250X-0.476250X0.476250X-0.476250X0.476250X0.476250X-0.476250X0.476250X0*%
%TD*%
%TA.AperFunction,ComponentPad*%
%ADD11RoundRect,0.190500X-0.444500X0.508000X-0.444500X-0.508000X0.444500X-0.508000X0.444500X0.508000X0*%
%TD*%
%TA.AperFunction,ComponentPad*%
%ADD12RoundRect,0.095250X0.603250X0.222250X-0.603250X0.222250X-0.603250X-0.222250X0.603250X-0.222250X0*%
%TD*%
%TA.AperFunction,ComponentPad*%
%ADD13RoundRect,0.190500X0.444500X-0.508000X0.444500X0.508000X-0.444500X0.508000X-0.444500X-0.508000X0*%
%TD*%
%TA.AperFunction,ComponentPad*%
%ADD14RoundRect,0.095250X-0.603250X-0.222250X0.603250X-0.222250X0.603250X0.222250X-0.603250X0.222250X0*%
%TD*%
%TA.AperFunction,ComponentPad*%
%ADD15RoundRect,0.285000X0.665000X1.064999X-0.665000X1.064999X-0.665000X-1.064999X0.665000X-1.064999X0*%
%TD*%
%TA.AperFunction,ComponentPad*%
%ADD16R,2.000000X2.000000*%
%TD*%
%TA.AperFunction,ComponentPad*%
%ADD17C,2.000000*%
%TD*%
%TA.AperFunction,ComponentPad*%
%ADD18RoundRect,0.175000X-0.400000X0.175000X-0.400000X-0.175000X0.400000X-0.175000X0.400000X0.175000X0*%
%TD*%
%TA.AperFunction,ComponentPad*%
%ADD19C,5.600000*%
%TD*%
%TA.AperFunction,ComponentPad*%
%ADD20RoundRect,0.150000X-0.825000X-0.150000X0.825000X-0.150000X0.825000X0.150000X-0.825000X0.150000X0*%
%TD*%
%TA.AperFunction,ComponentPad*%
%ADD21RoundRect,0.760000X-1.140000X-1.140000X1.140000X-1.140000X1.140000X1.140000X-1.140000X1.140000X0*%
%TD*%
%TA.AperFunction,ComponentPad*%
%ADD22C,4.000000*%
%TD*%
%TA.AperFunction,ComponentPad*%
%ADD23C,1.000000*%
%TD*%
%TA.AperFunction,Conductor*%
%ADD24C,0.381000*%
%TD*%
%TA.AperFunction,Conductor*%
%ADD25C,1.270000*%
%TD*%
G04 APERTURE END LIST*
D10*
%TO.P,J4,1*%
%TO.N,Net-(U1-VCC)*%
X181960000Y-78500000D03*
%TO.P,J4,2*%
%TO.N,GND*%
X184500000Y-78500000D03*
%TD*%
D11*
%TO.P,J1,1*%
%TO.N,unconnected-(J1-Pad1)*%
X142880000Y-88120000D03*
%TO.P,J1,2*%
%TO.N,GND*%
X150500000Y-88120000D03*
%TO.P,J1,3*%
%TO.N,unconnected-(J1-Pad3)*%
X158120000Y-88120000D03*
%TO.P,J1,4*%
%TO.N,Net-(J1-Pad4)*%
X145420000Y-90025000D03*
%TO.P,J1,5*%
%TO.N,Net-(U1-INA)*%
X155580000Y-90025000D03*
D12*
%TO.P,J1,6*%
%TO.N,N/C*%
X150500000Y-80500000D03*
%TO.P,J1,7*%
X155580000Y-78214000D03*
X145420000Y-78214000D03*
%TD*%
D13*
%TO.P,J2,1*%
%TO.N,unconnected-(J2-Pad1)*%
X158200000Y-112594000D03*
%TO.P,J2,2*%
%TO.N,GND*%
X150580000Y-112594000D03*
%TO.P,J2,3*%
%TO.N,unconnected-(J2-Pad3)*%
X142960000Y-112594000D03*
%TO.P,J2,4*%
%TO.N,Net-(J1-Pad4)*%
X155660000Y-110689000D03*
%TO.P,J2,5*%
%TO.N,Net-(U1-INA)*%
X145500000Y-110689000D03*
D14*
%TO.P,J2,6*%
%TO.N,N/C*%
X150580000Y-120214000D03*
%TO.P,J2,7*%
X145500000Y-122500000D03*
X155660000Y-122500000D03*
%TD*%
D15*
%TO.P,D4,2,K*%
%TO.N,Net-(D2-K)*%
X186800000Y-88500000D03*
%TO.P,D4,1,A*%
%TO.N,Net-(D4-A)*%
X189000000Y-88500000D03*
%TD*%
%TO.P,D2,2,K*%
%TO.N,Net-(D2-K)*%
X186800000Y-113000000D03*
%TO.P,D2,1,A*%
%TO.N,Net-(D2-A)*%
X189000000Y-113000000D03*
%TD*%
%TO.P,D3,2,K*%
%TO.N,Net-(D2-K)*%
X186800000Y-98500000D03*
%TO.P,D3,1,A*%
%TO.N,Net-(D3-A)*%
X189000000Y-98500000D03*
%TD*%
D16*
%TO.P,R8,1*%
%TO.N,Net-(R7-Pad2)*%
X205580000Y-88500000D03*
D17*
%TO.P,R8,2*%
%TO.N,Net-(D4-A)*%
X200500000Y-88500000D03*
%TD*%
D18*
%TO.P,Q1,1,S*%
%TO.N,GND*%
X178743746Y-96740000D03*
%TO.P,Q1,2,S*%
X178743746Y-98010000D03*
%TO.P,Q1,3,S*%
X178743746Y-99290000D03*
%TD*%
D19*
%TO.P,REF\u002A\u002A,1*%
%TO.N,N/C*%
X135500000Y-122000000D03*
%TD*%
%TO.P,REF\u002A\u002A,1*%
%TO.N,N/C*%
X135500000Y-79050000D03*
%TD*%
%TO.P,REF\u002A\u002A,1*%
%TO.N,N/C*%
X225000000Y-122000000D03*
%TD*%
%TO.P,REF\u002A\u002A,1*%
%TO.N,N/C*%
X225000000Y-79000000D03*
%TD*%
D10*
%TO.P,TP2,1,1*%
%TO.N,Net-(U1-INA)*%
X145500000Y-104000000D03*
%TD*%
%TO.P,TP1,1,1*%
%TO.N,GND*%
X163000000Y-79500000D03*
%TD*%
D16*
%TO.P,R3,1*%
%TO.N,Net-(U1-VCC)*%
X224040000Y-113069190D03*
D17*
%TO.P,R3,2*%
%TO.N,Net-(R3-Pad2)*%
X218960000Y-113069190D03*
%TD*%
D20*
%TO.P,U1,3,GND*%
%TO.N,GND*%
X168000000Y-101730000D03*
%TO.P,U1,6,VCC*%
%TO.N,Net-(U1-VCC)*%
X172950000Y-101730000D03*
%TD*%
D10*
%TO.P,TP4,1,1*%
%TO.N,Net-(D2-K)*%
X182000000Y-88500000D03*
%TD*%
D16*
%TO.P,R5,1*%
%TO.N,Net-(U1-VCC)*%
X224080000Y-100500000D03*
D17*
%TO.P,R5,2*%
%TO.N,Net-(R5-Pad2)*%
X219000000Y-100500000D03*
%TD*%
D10*
%TO.P,TP3,1,1*%
%TO.N,Net-(U1-ENA)*%
X182000000Y-110500000D03*
%TD*%
D16*
%TO.P,R7,1*%
%TO.N,Net-(U1-VCC)*%
X224080000Y-88500000D03*
D17*
%TO.P,R7,2*%
%TO.N,Net-(R7-Pad2)*%
X219000000Y-88500000D03*
%TD*%
D16*
%TO.P,R6,1*%
%TO.N,Net-(R5-Pad2)*%
X205871689Y-100500000D03*
D17*
%TO.P,R6,2*%
%TO.N,Net-(D3-A)*%
X200791689Y-100500000D03*
%TD*%
D21*
%TO.P,J3,1*%
%TO.N,GND*%
X167675000Y-85500000D03*
D22*
%TO.P,J3,2*%
%TO.N,Net-(U1-VCC)*%
X172675000Y-85500000D03*
%TD*%
D16*
%TO.P,R4,1*%
%TO.N,Net-(R3-Pad2)*%
X206080000Y-113000000D03*
D17*
%TO.P,R4,2*%
%TO.N,Net-(D2-A)*%
X201000000Y-113000000D03*
%TD*%
D23*
%TO.P,Y1,8,8*%
%TO.N,Net-(U1-VCC)*%
X176100000Y-116000000D03*
%TO.P,Y1,5,5*%
%TO.N,Net-(U1-ENA)*%
X176100000Y-108400000D03*
%TO.P,Y1,4,4*%
%TO.N,GND*%
X168500000Y-108400000D03*
%TO.P,Y1,1,1*%
%TO.N,unconnected-(Y1-Pad1)*%
X168500000Y-116000000D03*
%TD*%
D24*
%TO.N,Net-(U1-INA)*%
X155580000Y-102920000D02*
X155580000Y-90025000D01*
X147811000Y-110689000D02*
X155580000Y-102920000D01*
X145500000Y-110689000D02*
X147811000Y-110689000D01*
D25*
%TO.N,GND*%
X167675000Y-82825000D02*
X167675000Y-85500000D01*
X169000000Y-81500000D02*
X167675000Y-82825000D01*
X175500000Y-81500000D02*
X169000000Y-81500000D01*
X178780000Y-84780000D02*
X175500000Y-81500000D01*
X178780000Y-98990000D02*
X178780000Y-84780000D01*
D24*
%TO.N,Net-(U1-ENA)*%
X178200000Y-110500000D02*
X176100000Y-108400000D01*
X182000000Y-110500000D02*
X178200000Y-110500000D01*
D25*
%TO.N,Net-(U1-VCC)*%
X172500000Y-85675000D02*
X172675000Y-85500000D01*
X172500000Y-88500000D02*
X172500000Y-85675000D01*
X170500000Y-100500000D02*
X170500000Y-90500000D01*
X171730000Y-101730000D02*
X170500000Y-100500000D01*
X170500000Y-90500000D02*
X172500000Y-88500000D01*
X172950000Y-101730000D02*
X171730000Y-101730000D01*
%TO.N,GND*%
X167675000Y-89825000D02*
X167675000Y-85500000D01*
X164000000Y-93500000D02*
X167675000Y-89825000D01*
X164000000Y-99500000D02*
X164000000Y-93500000D01*
X166230000Y-101730000D02*
X164000000Y-99500000D01*
X168000000Y-101730000D02*
X166230000Y-101730000D01*
%TD*%
M02*
