%TF.GenerationSoftware,KiCad,Pcbnew,9.0.5*%
%TF.CreationDate,2025-11-04T14:22:13-07:00*%
%TF.ProjectId,Tx,54782e6b-6963-4616-945f-706362585858,rev?*%
%TF.SameCoordinates,Original*%
%TF.FileFunction,Soldermask,Top*%
%TF.FilePolarity,Negative*%
%FSLAX46Y46*%
G04 Gerber Fmt 4.6, Leading zero omitted, Abs format (unit mm)*
G04 Created by KiCad (PCBNEW 9.0.5) date 2025-11-04 14:22:13*
%MOMM*%
%LPD*%
G01*
G04 APERTURE LIST*
G04 Aperture macros list*
%AMRoundRect*
0 Rectangle with rounded corners*
0 $1 Rounding radius*
0 $2 $3 $4 $5 $6 $7 $8 $9 X,Y pos of 4 corners*
0 Add a 4 corners polygon primitive as box body*
4,1,4,$2,$3,$4,$5,$6,$7,$8,$9,$2,$3,0*
0 Add four circle primitives for the rounded corners*
1,1,$1+$1,$2,$3*
1,1,$1+$1,$4,$5*
1,1,$1+$1,$6,$7*
1,1,$1+$1,$8,$9*
0 Add four rect primitives between the rounded corners*
20,1,$1+$1,$2,$3,$4,$5,0*
20,1,$1+$1,$4,$5,$6,$7,0*
20,1,$1+$1,$6,$7,$8,$9,0*
20,1,$1+$1,$8,$9,$2,$3,0*%
%AMFreePoly0*
4,1,9,2.975000,-2.350000,1.425000,-2.350000,1.425000,-2.100000,-1.650000,-2.100000,-1.650000,2.100000,1.425000,2.100000,1.425000,2.350000,2.975000,2.350000,2.975000,-2.350000,2.975000,-2.350000,$1*%
G04 Aperture macros list end*
%ADD10RoundRect,0.476250X-0.476250X-0.476250X0.476250X-0.476250X0.476250X0.476250X-0.476250X0.476250X0*%
%ADD11RoundRect,0.190500X-0.444500X0.508000X-0.444500X-0.508000X0.444500X-0.508000X0.444500X0.508000X0*%
%ADD12RoundRect,0.095250X0.603250X0.222250X-0.603250X0.222250X-0.603250X-0.222250X0.603250X-0.222250X0*%
%ADD13RoundRect,0.190500X0.444500X-0.508000X0.444500X0.508000X-0.444500X0.508000X-0.444500X-0.508000X0*%
%ADD14RoundRect,0.095250X-0.603250X-0.222250X0.603250X-0.222250X0.603250X0.222250X-0.603250X0.222250X0*%
%ADD15RoundRect,0.285000X0.665000X1.064999X-0.665000X1.064999X-0.665000X-1.064999X0.665000X-1.064999X0*%
%ADD16RoundRect,0.250000X0.337500X0.475000X-0.337500X0.475000X-0.337500X-0.475000X0.337500X-0.475000X0*%
%ADD17R,2.000000X2.000000*%
%ADD18C,2.000000*%
%ADD19RoundRect,0.175000X-0.400000X0.175000X-0.400000X-0.175000X0.400000X-0.175000X0.400000X0.175000X0*%
%ADD20FreePoly0,0.000000*%
%ADD21C,5.600000*%
%ADD22RoundRect,0.250000X0.325000X0.450000X-0.325000X0.450000X-0.325000X-0.450000X0.325000X-0.450000X0*%
%ADD23RoundRect,0.150000X-0.825000X-0.150000X0.825000X-0.150000X0.825000X0.150000X-0.825000X0.150000X0*%
%ADD24RoundRect,0.760000X-1.140000X-1.140000X1.140000X-1.140000X1.140000X1.140000X-1.140000X1.140000X0*%
%ADD25C,4.000000*%
%ADD26C,1.000000*%
G04 APERTURE END LIST*
D10*
%TO.C,J4*%
X181960000Y-78500000D03*
X184500000Y-78500000D03*
%TD*%
D11*
%TO.C,J1*%
X142880000Y-88120000D03*
X150500000Y-88120000D03*
X158120000Y-88120000D03*
X145420000Y-90025000D03*
X155580000Y-90025000D03*
D12*
X150500000Y-80500000D03*
X155580000Y-78214000D03*
X145420000Y-78214000D03*
%TD*%
D13*
%TO.C,J2*%
X158200000Y-112594000D03*
X150580000Y-112594000D03*
X142960000Y-112594000D03*
X155660000Y-110689000D03*
X145500000Y-110689000D03*
D14*
X150580000Y-120214000D03*
X145500000Y-122500000D03*
X155660000Y-122500000D03*
%TD*%
D15*
%TO.C,D4*%
X186800000Y-88500000D03*
X189000000Y-88500000D03*
%TD*%
%TO.C,D2*%
X186800000Y-113000000D03*
X189000000Y-113000000D03*
%TD*%
%TO.C,D3*%
X186800000Y-98500000D03*
X189000000Y-98500000D03*
%TD*%
D16*
%TO.C,R2*%
X173500000Y-96000000D03*
X171425000Y-96000000D03*
%TD*%
D17*
%TO.C,R8*%
X205580000Y-88500000D03*
D18*
X200500000Y-88500000D03*
%TD*%
D19*
%TO.C,Q1*%
X178743746Y-96740000D03*
X178743746Y-98010000D03*
X178743746Y-99290000D03*
X178743746Y-100560000D03*
D20*
X182013746Y-98650000D03*
%TD*%
D21*
%TO.C,REF\u002A\u002A*%
X135500000Y-122000000D03*
%TD*%
%TO.C,REF\u002A\u002A*%
X135500000Y-79050000D03*
%TD*%
%TO.C,REF\u002A\u002A*%
X225000000Y-122000000D03*
%TD*%
%TO.C,REF\u002A\u002A*%
X225000000Y-79000000D03*
%TD*%
D16*
%TO.C,R1*%
X168954101Y-92610301D03*
X166879101Y-92610301D03*
%TD*%
D10*
%TO.C,TP2*%
X145500000Y-104000000D03*
%TD*%
%TO.C,TP1*%
X163000000Y-79500000D03*
%TD*%
D17*
%TO.C,R3*%
X224040000Y-113069190D03*
D18*
X218960000Y-113069190D03*
%TD*%
D22*
%TO.C,D1*%
X172000000Y-92500000D03*
X174032000Y-92500000D03*
%TD*%
D23*
%TO.C,U1*%
X168000000Y-99190000D03*
X168000000Y-100460000D03*
X168000000Y-101730000D03*
X168000000Y-103000000D03*
X172950000Y-103000000D03*
X172950000Y-101730000D03*
X172950000Y-100460000D03*
X172950000Y-99190000D03*
%TD*%
D10*
%TO.C,TP4*%
X182000000Y-88500000D03*
%TD*%
D17*
%TO.C,R5*%
X224080000Y-100500000D03*
D18*
X219000000Y-100500000D03*
%TD*%
D10*
%TO.C,TP3*%
X182000000Y-110500000D03*
%TD*%
D17*
%TO.C,R7*%
X224080000Y-88500000D03*
D18*
X219000000Y-88500000D03*
%TD*%
D17*
%TO.C,R6*%
X205871689Y-100500000D03*
D18*
X200791689Y-100500000D03*
%TD*%
D24*
%TO.C,J3*%
X167675000Y-85500000D03*
D25*
X172675000Y-85500000D03*
%TD*%
D17*
%TO.C,R4*%
X206080000Y-113000000D03*
D18*
X201000000Y-113000000D03*
%TD*%
D26*
%TO.C,Y1*%
X176100000Y-116000000D03*
X176100000Y-108400000D03*
X168500000Y-108400000D03*
X168500000Y-116000000D03*
%TD*%
M02*
