%TF.GenerationSoftware,KiCad,Pcbnew,9.0.5*%
%TF.CreationDate,2025-11-04T14:22:13-07:00*%
%TF.ProjectId,Tx,54782e6b-6963-4616-945f-706362585858,rev?*%
%TF.SameCoordinates,Original*%
%TF.FileFunction,Copper,L1,Top*%
%TF.FilePolarity,Positive*%
%FSLAX46Y46*%
G04 Gerber Fmt 4.6, Leading zero omitted, Abs format (unit mm)*
G04 Created by KiCad (PCBNEW 9.0.5) date 2025-11-04 14:22:13*
%MOMM*%
%LPD*%
G01*
G04 APERTURE LIST*
G04 Aperture macros list*
%AMRoundRect*
0 Rectangle with rounded corners*
0 $1 Rounding radius*
0 $2 $3 $4 $5 $6 $7 $8 $9 X,Y pos of 4 corners*
0 Add a 4 corners polygon primitive as box body*
4,1,4,$2,$3,$4,$5,$6,$7,$8,$9,$2,$3,0*
0 Add four circle primitives for the rounded corners*
1,1,$1+$1,$2,$3*
1,1,$1+$1,$4,$5*
1,1,$1+$1,$6,$7*
1,1,$1+$1,$8,$9*
0 Add four rect primitives between the rounded corners*
20,1,$1+$1,$2,$3,$4,$5,0*
20,1,$1+$1,$4,$5,$6,$7,0*
20,1,$1+$1,$6,$7,$8,$9,0*
20,1,$1+$1,$8,$9,$2,$3,0*%
%AMFreePoly0*
4,1,9,2.975000,-2.350000,1.425000,-2.350000,1.425000,-2.100000,-1.650000,-2.100000,-1.650000,2.100000,1.425000,2.100000,1.425000,2.350000,2.975000,2.350000,2.975000,-2.350000,2.975000,-2.350000,$1*%
G04 Aperture macros list end*
%TA.AperFunction,ComponentPad*%
%ADD10RoundRect,0.476250X-0.476250X-0.476250X0.476250X-0.476250X0.476250X0.476250X-0.476250X0.476250X0*%
%TD*%
%TA.AperFunction,ComponentPad*%
%ADD11RoundRect,0.190500X-0.444500X0.508000X-0.444500X-0.508000X0.444500X-0.508000X0.444500X0.508000X0*%
%TD*%
%TA.AperFunction,ComponentPad*%
%ADD12RoundRect,0.095250X0.603250X0.222250X-0.603250X0.222250X-0.603250X-0.222250X0.603250X-0.222250X0*%
%TD*%
%TA.AperFunction,ComponentPad*%
%ADD13RoundRect,0.190500X0.444500X-0.508000X0.444500X0.508000X-0.444500X0.508000X-0.444500X-0.508000X0*%
%TD*%
%TA.AperFunction,ComponentPad*%
%ADD14RoundRect,0.095250X-0.603250X-0.222250X0.603250X-0.222250X0.603250X0.222250X-0.603250X0.222250X0*%
%TD*%
%TA.AperFunction,ComponentPad*%
%ADD15RoundRect,0.285000X0.665000X1.064999X-0.665000X1.064999X-0.665000X-1.064999X0.665000X-1.064999X0*%
%TD*%
%TA.AperFunction,SMDPad,CuDef*%
%ADD16RoundRect,0.250000X0.337500X0.475000X-0.337500X0.475000X-0.337500X-0.475000X0.337500X-0.475000X0*%
%TD*%
%TA.AperFunction,ComponentPad*%
%ADD17R,2.000000X2.000000*%
%TD*%
%TA.AperFunction,ComponentPad*%
%ADD18C,2.000000*%
%TD*%
%TA.AperFunction,ComponentPad*%
%ADD19RoundRect,0.175000X-0.400000X0.175000X-0.400000X-0.175000X0.400000X-0.175000X0.400000X0.175000X0*%
%TD*%
%TA.AperFunction,SMDPad,CuDef*%
%ADD20RoundRect,0.175000X-0.400000X0.175000X-0.400000X-0.175000X0.400000X-0.175000X0.400000X0.175000X0*%
%TD*%
%TA.AperFunction,SMDPad,CuDef*%
%ADD21FreePoly0,0.000000*%
%TD*%
%TA.AperFunction,ComponentPad*%
%ADD22C,5.600000*%
%TD*%
%TA.AperFunction,SMDPad,CuDef*%
%ADD23RoundRect,0.250000X0.325000X0.450000X-0.325000X0.450000X-0.325000X-0.450000X0.325000X-0.450000X0*%
%TD*%
%TA.AperFunction,SMDPad,CuDef*%
%ADD24RoundRect,0.150000X-0.825000X-0.150000X0.825000X-0.150000X0.825000X0.150000X-0.825000X0.150000X0*%
%TD*%
%TA.AperFunction,ComponentPad*%
%ADD25RoundRect,0.150000X-0.825000X-0.150000X0.825000X-0.150000X0.825000X0.150000X-0.825000X0.150000X0*%
%TD*%
%TA.AperFunction,ComponentPad*%
%ADD26RoundRect,0.760000X-1.140000X-1.140000X1.140000X-1.140000X1.140000X1.140000X-1.140000X1.140000X0*%
%TD*%
%TA.AperFunction,ComponentPad*%
%ADD27C,4.000000*%
%TD*%
%TA.AperFunction,ComponentPad*%
%ADD28C,1.000000*%
%TD*%
%TA.AperFunction,Conductor*%
%ADD29C,1.270000*%
%TD*%
%TA.AperFunction,Conductor*%
%ADD30C,0.381000*%
%TD*%
G04 APERTURE END LIST*
D10*
%TO.P,J4,1*%
%TO.N,Net-(U1-VCC)*%
X181960000Y-78500000D03*
%TO.P,J4,2*%
%TO.N,GND*%
X184500000Y-78500000D03*
%TD*%
D11*
%TO.P,J1,1*%
%TO.N,unconnected-(J1-Pad1)*%
X142880000Y-88120000D03*
%TO.P,J1,2*%
%TO.N,GND*%
X150500000Y-88120000D03*
%TO.P,J1,3*%
%TO.N,unconnected-(J1-Pad3)*%
X158120000Y-88120000D03*
%TO.P,J1,4*%
%TO.N,Net-(J1-Pad4)*%
X145420000Y-90025000D03*
%TO.P,J1,5*%
%TO.N,Net-(U1-INA)*%
X155580000Y-90025000D03*
D12*
%TO.P,J1,6*%
%TO.N,N/C*%
X150500000Y-80500000D03*
%TO.P,J1,7*%
X155580000Y-78214000D03*
X145420000Y-78214000D03*
%TD*%
D13*
%TO.P,J2,1*%
%TO.N,unconnected-(J2-Pad1)*%
X158200000Y-112594000D03*
%TO.P,J2,2*%
%TO.N,GND*%
X150580000Y-112594000D03*
%TO.P,J2,3*%
%TO.N,unconnected-(J2-Pad3)*%
X142960000Y-112594000D03*
%TO.P,J2,4*%
%TO.N,Net-(J1-Pad4)*%
X155660000Y-110689000D03*
%TO.P,J2,5*%
%TO.N,Net-(U1-INA)*%
X145500000Y-110689000D03*
D14*
%TO.P,J2,6*%
%TO.N,N/C*%
X150580000Y-120214000D03*
%TO.P,J2,7*%
X145500000Y-122500000D03*
X155660000Y-122500000D03*
%TD*%
D15*
%TO.P,D4,2,K*%
%TO.N,Net-(D2-K)*%
X186800000Y-88500000D03*
%TO.P,D4,1,A*%
%TO.N,Net-(D4-A)*%
X189000000Y-88500000D03*
%TD*%
%TO.P,D2,2,K*%
%TO.N,Net-(D2-K)*%
X186800000Y-113000000D03*
%TO.P,D2,1,A*%
%TO.N,Net-(D2-A)*%
X189000000Y-113000000D03*
%TD*%
%TO.P,D3,2,K*%
%TO.N,Net-(D2-K)*%
X186800000Y-98500000D03*
%TO.P,D3,1,A*%
%TO.N,Net-(D3-A)*%
X189000000Y-98500000D03*
%TD*%
D16*
%TO.P,R2,1*%
%TO.N,Net-(Q1-G)*%
X173500000Y-96000000D03*
%TO.P,R2,2*%
%TO.N,GND*%
X171425000Y-96000000D03*
%TD*%
D17*
%TO.P,R8,1*%
%TO.N,Net-(R7-Pad2)*%
X205580000Y-88500000D03*
D18*
%TO.P,R8,2*%
%TO.N,Net-(D4-A)*%
X200500000Y-88500000D03*
%TD*%
D19*
%TO.P,Q1,1,S*%
%TO.N,GND*%
X178743746Y-96740000D03*
%TO.P,Q1,2,S*%
X178743746Y-98010000D03*
%TO.P,Q1,3,S*%
X178743746Y-99290000D03*
D20*
%TO.P,Q1,4,G*%
%TO.N,Net-(Q1-G)*%
X178743746Y-100560000D03*
D21*
%TO.P,Q1,5,D*%
%TO.N,Net-(D2-K)*%
X182013746Y-98650000D03*
%TD*%
D22*
%TO.P,REF\u002A\u002A,1*%
%TO.N,N/C*%
X135500000Y-122000000D03*
%TD*%
%TO.P,REF\u002A\u002A,1*%
%TO.N,N/C*%
X135500000Y-79050000D03*
%TD*%
%TO.P,REF\u002A\u002A,1*%
%TO.N,N/C*%
X225000000Y-122000000D03*
%TD*%
%TO.P,REF\u002A\u002A,1*%
%TO.N,N/C*%
X225000000Y-79000000D03*
%TD*%
D16*
%TO.P,R1,1*%
%TO.N,Net-(D1-K)*%
X168954101Y-92610301D03*
%TO.P,R1,2*%
%TO.N,GND*%
X166879101Y-92610301D03*
%TD*%
D10*
%TO.P,TP2,1,1*%
%TO.N,Net-(U1-INA)*%
X145500000Y-104000000D03*
%TD*%
%TO.P,TP1,1,1*%
%TO.N,GND*%
X163000000Y-79500000D03*
%TD*%
D17*
%TO.P,R3,1*%
%TO.N,Net-(U1-VCC)*%
X224040000Y-113069190D03*
D18*
%TO.P,R3,2*%
%TO.N,Net-(R3-Pad2)*%
X218960000Y-113069190D03*
%TD*%
D23*
%TO.P,D1,1,K*%
%TO.N,Net-(D1-K)*%
X172000000Y-92500000D03*
%TO.P,D1,2,A*%
%TO.N,Net-(D1-A)*%
X174032000Y-92500000D03*
%TD*%
D24*
%TO.P,U1,1,ENA*%
%TO.N,Net-(U1-ENA)*%
X168000000Y-99190000D03*
%TO.P,U1,2,INA*%
%TO.N,Net-(U1-INA)*%
X168000000Y-100460000D03*
D25*
%TO.P,U1,3,GND*%
%TO.N,GND*%
X168000000Y-101730000D03*
D24*
%TO.P,U1,4,INB*%
%TO.N,unconnected-(U1-INB-Pad4)*%
X168000000Y-103000000D03*
%TO.P,U1,5,~{OUTB}*%
%TO.N,unconnected-(U1-~{OUTB}-Pad5)*%
X172950000Y-103000000D03*
D25*
%TO.P,U1,6,VCC*%
%TO.N,Net-(U1-VCC)*%
X172950000Y-101730000D03*
D24*
%TO.P,U1,7,~{OUTA}*%
%TO.N,Net-(Q1-G)*%
X172950000Y-100460000D03*
%TO.P,U1,8,ENB*%
%TO.N,unconnected-(U1-ENB-Pad8)*%
X172950000Y-99190000D03*
%TD*%
D10*
%TO.P,TP4,1,1*%
%TO.N,Net-(D2-K)*%
X182000000Y-88500000D03*
%TD*%
D17*
%TO.P,R5,1*%
%TO.N,Net-(U1-VCC)*%
X224080000Y-100500000D03*
D18*
%TO.P,R5,2*%
%TO.N,Net-(R5-Pad2)*%
X219000000Y-100500000D03*
%TD*%
D10*
%TO.P,TP3,1,1*%
%TO.N,Net-(U1-ENA)*%
X182000000Y-110500000D03*
%TD*%
D17*
%TO.P,R7,1*%
%TO.N,Net-(U1-VCC)*%
X224080000Y-88500000D03*
D18*
%TO.P,R7,2*%
%TO.N,Net-(R7-Pad2)*%
X219000000Y-88500000D03*
%TD*%
D17*
%TO.P,R6,1*%
%TO.N,Net-(R5-Pad2)*%
X205871689Y-100500000D03*
D18*
%TO.P,R6,2*%
%TO.N,Net-(D3-A)*%
X200791689Y-100500000D03*
%TD*%
D26*
%TO.P,J3,1*%
%TO.N,GND*%
X167675000Y-85500000D03*
D27*
%TO.P,J3,2*%
%TO.N,Net-(U1-VCC)*%
X172675000Y-85500000D03*
%TD*%
D17*
%TO.P,R4,1*%
%TO.N,Net-(R3-Pad2)*%
X206080000Y-113000000D03*
D18*
%TO.P,R4,2*%
%TO.N,Net-(D2-A)*%
X201000000Y-113000000D03*
%TD*%
D28*
%TO.P,Y1,8,8*%
%TO.N,Net-(U1-VCC)*%
X176100000Y-116000000D03*
%TO.P,Y1,5,5*%
%TO.N,Net-(U1-ENA)*%
X176100000Y-108400000D03*
%TO.P,Y1,4,4*%
%TO.N,GND*%
X168500000Y-108400000D03*
%TO.P,Y1,1,1*%
%TO.N,unconnected-(Y1-Pad1)*%
X168500000Y-116000000D03*
%TD*%
D29*
%TO.N,Net-(D2-K)*%
X186800000Y-98500000D02*
X182163746Y-98500000D01*
%TO.N,Net-(D3-A)*%
X192000000Y-98500000D02*
X189000000Y-98500000D01*
X194000000Y-100500000D02*
X192000000Y-98500000D01*
X200500000Y-100500000D02*
X194000000Y-100500000D01*
%TO.N,Net-(D2-K)*%
X186714000Y-98500000D02*
X186714000Y-100500000D01*
%TO.N,Net-(Q1-G)*%
X178743746Y-100560000D02*
X173050000Y-100560000D01*
D30*
%TO.N,GND*%
X166879101Y-93994701D02*
X166879101Y-92610301D01*
X168884400Y-96000000D02*
X166879101Y-93994701D01*
X171425000Y-96000000D02*
X168884400Y-96000000D01*
%TO.N,Net-(Q1-G)*%
X175680724Y-97180724D02*
X175680724Y-99511776D01*
X174732500Y-100460000D02*
X172950000Y-100460000D01*
X173500000Y-96000000D02*
X174500000Y-96000000D01*
X174500000Y-96000000D02*
X175680724Y-97180724D01*
X175680724Y-99511776D02*
X174732500Y-100460000D01*
%TO.N,GND*%
X164350000Y-79500000D02*
X163000000Y-79500000D01*
X167675000Y-82825000D02*
X164350000Y-79500000D01*
D29*
X167675000Y-82825000D02*
X167675000Y-85500000D01*
X183686000Y-76186000D02*
X174314000Y-76186000D01*
X184500000Y-77000000D02*
X183686000Y-76186000D01*
X184500000Y-78500000D02*
X184500000Y-77000000D01*
X174314000Y-76186000D02*
X167675000Y-82825000D01*
%TO.N,Net-(U1-VCC)*%
X172675000Y-83325000D02*
X177500000Y-78500000D01*
X172675000Y-85500000D02*
X172675000Y-83325000D01*
X177500000Y-78500000D02*
X181960000Y-78500000D01*
D30*
%TO.N,GND*%
X152000000Y-85500000D02*
X167675000Y-85500000D01*
X150500000Y-87000000D02*
X152000000Y-85500000D01*
X150500000Y-88120000D02*
X150500000Y-87000000D01*
%TO.N,Net-(U1-INA)*%
X157960000Y-100460000D02*
X168000000Y-100460000D01*
X155580000Y-98080000D02*
X157960000Y-100460000D01*
X155580000Y-90025000D02*
X155580000Y-98080000D01*
%TO.N,Net-(J1-Pad4)*%
X155700000Y-110649000D02*
X155660000Y-110689000D01*
X145500000Y-98000000D02*
X155700000Y-108200000D01*
X155700000Y-108200000D02*
X155700000Y-110649000D01*
X145500000Y-90105000D02*
X145500000Y-98000000D01*
%TO.N,GND*%
X160500000Y-114500000D02*
X166600000Y-108400000D01*
X154094000Y-112594000D02*
X156000000Y-114500000D01*
X156000000Y-114500000D02*
X160500000Y-114500000D01*
X166600000Y-108400000D02*
X168500000Y-108400000D01*
X150580000Y-112594000D02*
X154094000Y-112594000D01*
%TO.N,Net-(U1-INA)*%
X145500000Y-110689000D02*
X145540000Y-110649000D01*
X145540000Y-110649000D02*
X145540000Y-104040000D01*
D29*
%TO.N,Net-(D4-A)*%
X200500000Y-88500000D02*
X189000000Y-88500000D01*
%TO.N,Net-(D2-A)*%
X200500000Y-113000000D02*
X189000000Y-113000000D01*
%TO.N,Net-(D2-K)*%
X186714000Y-100714000D02*
X186714000Y-88500000D01*
D30*
X187000000Y-88500000D02*
X182000000Y-88500000D01*
D29*
X186714000Y-100714000D02*
X186714000Y-113000000D01*
%TO.N,Net-(U1-VCC)*%
X224040000Y-85040000D02*
X224040000Y-88450000D01*
X222500000Y-83500000D02*
X224040000Y-85040000D01*
X174675000Y-83500000D02*
X222500000Y-83500000D01*
X172675000Y-85500000D02*
X174675000Y-83500000D01*
D30*
X174000000Y-86825000D02*
X172675000Y-85500000D01*
X174000000Y-92500000D02*
X174000000Y-86825000D01*
%TO.N,GND*%
X167675000Y-88825000D02*
X167675000Y-85500000D01*
X166879101Y-89620899D02*
X167675000Y-88825000D01*
X166879101Y-92610301D02*
X166879101Y-89620899D01*
X166768800Y-92500000D02*
X166879101Y-92610301D01*
%TO.N,Net-(D1-K)*%
X168954101Y-92610301D02*
X171857699Y-92610301D01*
%TO.N,Net-(U1-VCC)*%
X177500000Y-105305001D02*
X173924999Y-101730000D01*
X177500000Y-114600000D02*
X177500000Y-105305001D01*
X173924999Y-101730000D02*
X172950000Y-101730000D01*
X176100000Y-116000000D02*
X177500000Y-114600000D01*
%TO.N,GND*%
X169003000Y-101730000D02*
X168000000Y-101730000D01*
X169366500Y-102093500D02*
X169003000Y-101730000D01*
X169366500Y-107533500D02*
X169366500Y-102093500D01*
X168500000Y-108400000D02*
X169366500Y-107533500D01*
%TO.N,Net-(U1-ENA)*%
X170000000Y-99500000D02*
X169690000Y-99190000D01*
X170000000Y-102300000D02*
X170000000Y-99500000D01*
X176100000Y-108400000D02*
X170000000Y-102300000D01*
X169690000Y-99190000D02*
X168000000Y-99190000D01*
D29*
%TO.N,Net-(U1-VCC)*%
X224080000Y-113000000D02*
X224080000Y-100580000D01*
X224040000Y-88450000D02*
X224040000Y-100460000D01*
%TO.N,Net-(R3-Pad2)*%
X205580000Y-113000000D02*
X219000000Y-113000000D01*
%TO.N,Net-(R5-Pad2)*%
X205580000Y-100500000D02*
X218920000Y-100500000D01*
%TO.N,Net-(R7-Pad2)*%
X205580000Y-88500000D02*
X218910000Y-88500000D01*
%TD*%
M02*
