M48
; DRILL file {KiCad 9.0.5} date 2025-11-04T14:22:16-0700
; FORMAT={-:-/ absolute / metric / decimal}
; #@! TF.CreationDate,2025-11-04T14:22:16-07:00
; #@! TF.GenerationSoftware,Kicad,Pcbnew,9.0.5
; #@! TF.FileFunction,Plated,1,2,PTH
FMAT,2
METRIC
; #@! TA.AperFunction,Plated,PTH,ComponentDrill
T1C0.254
; #@! TA.AperFunction,Plated,PTH,ComponentDrill
T2C0.305
; #@! TA.AperFunction,Plated,PTH,ComponentDrill
T3C0.381
; #@! TA.AperFunction,Plated,PTH,ComponentDrill
T4C0.500
; #@! TA.AperFunction,Plated,PTH,ComponentDrill
T5C0.762
; #@! TA.AperFunction,Plated,PTH,ComponentDrill
T6C1.100
; #@! TA.AperFunction,Plated,PTH,ComponentDrill
T7C1.270
; #@! TA.AperFunction,Plated,PTH,ComponentDrill
T8C1.500
; #@! TA.AperFunction,Plated,PTH,ComponentDrill
T9C2.700
; #@! TA.AperFunction,Plated,PTH,ComponentDrill
T10C3.200
%
G90
G05
T1
X168.0Y-101.73
X172.95Y-101.73
T3
X178.744Y-96.74
X178.744Y-98.01
X178.744Y-99.29
T4
X168.5Y-108.4
X168.5Y-116.0
X176.1Y-108.4
X176.1Y-116.0
T6
X200.5Y-88.5
X200.792Y-100.5
X201.0Y-113.0
X205.58Y-88.5
X205.872Y-100.5
X206.08Y-113.0
X218.96Y-113.069
X219.0Y-88.5
X219.0Y-100.5
X224.04Y-113.069
X224.08Y-88.5
X224.08Y-100.5
T7
X145.5Y-104.0
X163.0Y-79.5
X181.96Y-78.5
X182.0Y-88.5
X182.0Y-110.5
X184.5Y-78.5
T8
X186.8Y-88.5
X186.8Y-98.5
X186.8Y-113.0
X189.0Y-88.5
X189.0Y-98.5
X189.0Y-113.0
T9
X167.675Y-85.5
X172.675Y-85.5
T10
X135.5Y-79.05
X135.5Y-122.0
X225.0Y-79.0
X225.0Y-122.0
T2
G00X145.801Y-78.214
M15
G01X145.039Y-78.214
M16
G05
G00X145.119Y-122.5
M15
G01X145.881Y-122.5
M16
G05
G00X150.881Y-80.5
M15
G01X150.119Y-80.5
M16
G05
G00X150.199Y-120.214
M15
G01X150.961Y-120.214
M16
G05
G00X155.961Y-78.214
M15
G01X155.199Y-78.214
M16
G05
G00X155.279Y-122.5
M15
G01X156.041Y-122.5
M16
G05
T5
G00X142.88Y-87.929
M15
G01X142.88Y-88.31
M16
G05
G00X142.96Y-112.784
M15
G01X142.96Y-112.403
M16
G05
G00X145.42Y-89.834
M15
G01X145.42Y-90.215
M16
G05
G00X145.5Y-110.879
M15
G01X145.5Y-110.498
M16
G05
G00X150.5Y-87.929
M15
G01X150.5Y-88.31
M16
G05
G00X150.58Y-112.784
M15
G01X150.58Y-112.403
M16
G05
G00X155.58Y-89.834
M15
G01X155.58Y-90.215
M16
G05
G00X155.66Y-110.879
M15
G01X155.66Y-110.498
M16
G05
G00X158.12Y-87.929
M15
G01X158.12Y-88.31
M16
G05
G00X158.2Y-112.784
M15
G01X158.2Y-112.403
M16
G05
M30
